<?xml version="1.0" encoding="UTF-8" standalone="no"?><svg xmlns="http://www.w3.org/2000/svg" xmlns:xlink="http://www.w3.org/1999/xlink" clip-rule="evenodd" stroke-miterlimit="10" viewBox="0 0 1024 768"><desc>SVG generated by Keynote</desc><defs><pattern id="patternP1" patternUnits="userSpaceOnUse" width="256" height="256" viewBox="0 0 256 256"><image xlink:href="../../E874F726-2048-49F9-802D-CB8FF31B5891/assets/B1C7245618399390B198ABC85FA26FF2.png" width="256.00" height="256.00"></image></pattern></defs><g transform="matrix(1.00, 0.00, -0.00, -1.00, 0.0, 768.0)"><g><clipPath id="clip0x7fb87866f2f0"><path d="M 0.0 768.0 L 1024.0 768.0 L 1024.0 0.0 L 0.0 0.0 Z M 0.0 768.0 "></path></clipPath><g clip-path="url(#clip0x7fb87866f2f0)"><path d="M 0.0 0.0 L 1024.0 0.0 L 1024.0 768.0 L 0.0 768.0 Z M 0.0 0.0 " fill="url(#patternP1)"></path></g></g><g><clipPath id="clip0x7fb8786713a0"><path d="M -1.7 141.2 L 1105.4 141.2 L 1105.4 626.8 L -1.7 626.8 Z M -1.7 141.2 "></path></clipPath><g clip-path="url(#clip0x7fb8786713a0)"><path d="M -1.7 626.8 L 1105.4 626.8 L 1105.4 141.2 L -1.7 141.2 Z M -1.7 626.8 " fill="#FEFFFF" fill-opacity="0.00"></path></g></g><g><clipPath id="clip0x7fb878672ce0"><path d="M -0.1 625.7 L 1104.3 625.7 L 1104.3 141.6 L -0.1 141.6 Z M -0.1 625.7 "></path></clipPath><g clip-path="url(#clip0x7fb878672ce0)"><g><clipPath id="clip0x7fb878673430"><path d="M -0.1 141.6 L 1104.3 141.6 L 1104.3 625.7 L -0.1 625.7 Z M -0.1 141.6 "></path></clipPath><g clip-path="url(#clip0x7fb878673430)"><image xlink:href="6F16955365398EE6F9128F8D7E25B0A6.png" width="1280.00" height="800.00" transform="matrix(0.96, 0.00, -0.00, -0.96, -21.8, 698.3)"></image></g></g></g></g></g></svg>