<?xml version="1.0" encoding="UTF-8" standalone="no"?><svg xmlns="http://www.w3.org/2000/svg" xmlns:xlink="http://www.w3.org/1999/xlink" clip-rule="evenodd" stroke-miterlimit="10" viewBox="0 0 1024 768"><desc>SVG generated by Keynote</desc><defs><pattern id="patternP1" patternUnits="userSpaceOnUse" width="256" height="256" viewBox="0 0 256 256"><image xlink:href="../../E874F726-2048-49F9-802D-CB8FF31B5891/assets/B1C7245618399390B198ABC85FA26FF2.png" width="256.00" height="256.00"></image></pattern></defs><g transform="matrix(1.00, 0.00, -0.00, -1.00, 0.0, 768.0)"><g><clipPath id="clip0x7fb8785af9a0"><path d="M 0.0 768.0 L 1024.0 768.0 L 1024.0 0.0 L 0.0 0.0 Z M 0.0 768.0 "></path></clipPath><g clip-path="url(#clip0x7fb8785af9a0)"><path d="M 0.0 0.0 L 1024.0 0.0 L 1024.0 768.0 L 0.0 768.0 Z M 0.0 0.0 " fill="url(#patternP1)"></path></g></g><text xml:space="preserve" font-family="Helvetica-Light,Helvetica" font-size="80.0" fill="#FEFFFF" transform="matrix(1.00, 0.00, -0.00, -1.00, 329.7, 622.4)">A</text><text xml:space="preserve" font-family="Helvetica-Light,Helvetica" font-size="80.0" fill="#FEFFFF" transform="matrix(1.00, 0.00, -0.00, -1.00, 383.0, 622.4)"> </text><text xml:space="preserve" font-family="Helvetica-Light,Helvetica" font-size="80.0" fill="#FEFFFF" transform="matrix(1.00, 0.00, -0.00, -1.00, 405.3, 622.4)">S</text><text xml:space="preserve" font-family="Helvetica-Light,Helvetica" font-size="80.0" fill="#FEFFFF" transform="matrix(1.00, 0.00, -0.00, -1.00, 454.2, 622.4)">o</text><text xml:space="preserve" font-family="Helvetica-Light,Helvetica" font-size="80.0" fill="#FEFFFF" transform="matrix(1.00, 0.00, -0.00, -1.00, 498.6, 622.4)">l</text><text xml:space="preserve" font-family="Helvetica-Light,Helvetica" font-size="80.0" fill="#FEFFFF" transform="matrix(1.00, 0.00, -0.00, -1.00, 516.4, 622.4)">u</text><text xml:space="preserve" font-family="Helvetica-Light,Helvetica" font-size="80.0" fill="#FEFFFF" transform="matrix(1.00, 0.00, -0.00, -1.00, 560.9, 622.4)">รง</text><text xml:space="preserve" font-family="Helvetica-Light,Helvetica" font-size="80.0" fill="#FEFFFF" transform="matrix(1.00, 0.00, -0.00, -1.00, 605.4, 622.4)">รฃ</text><text xml:space="preserve" font-family="Helvetica-Light,Helvetica" font-size="80.0" fill="#FEFFFF" transform="matrix(1.00, 0.00, -0.00, -1.00, 649.8, 622.4)">o</text><g><clipPath id="clip0x7fb8785b70f0"><path d="M 23.4 25.2 L 1000.6 25.2 L 1000.6 566.0 L 23.4 566.0 Z M 23.4 25.2 "></path></clipPath><g clip-path="url(#clip0x7fb8785b70f0)"><path d="M 23.4 566.0 L 1000.6 566.0 L 1000.6 25.2 L 23.4 25.2 Z M 23.4 566.0 " fill="#FEFFFF" fill-opacity="0.00"></path><image xlink:href="B6A542105E403CA79398F606713808A7.png" width="571.00" height="316.00" transform="matrix(1.71, 0.00, -0.00, -1.71, 23.4, 566.0)"></image></g></g><g><clipPath id="clip0x7fb8785b99f0"><path d="M 26.5 562.1 L 987.2 562.1 L 987.2 37.8 L 26.5 37.8 Z M 26.5 562.1 "></path></clipPath><g clip-path="url(#clip0x7fb8785b99f0)"><g><clipPath id="clip0x7fb8785b9cc0"><path d="M 26.5 37.8 L 987.2 37.8 L 987.2 562.1 L 26.5 562.1 Z M 26.5 37.8 "></path></clipPath><g clip-path="url(#clip0x7fb8785b9cc0)"><image xlink:href="F8053F493FB6655FCDB88CBE7AA227EF.png" width="1280.00" height="800.00" transform="matrix(0.75, 0.00, -0.00, -0.82, 26.5, 613.8)"></image></g></g></g></g></g></svg>