<?xml version="1.0" encoding="UTF-8" standalone="no"?><svg xmlns="http://www.w3.org/2000/svg" xmlns:xlink="http://www.w3.org/1999/xlink" clip-rule="evenodd" stroke-miterlimit="10" viewBox="0 0 1024 768"><desc>SVG generated by Keynote</desc><defs><pattern id="patternP1" patternUnits="userSpaceOnUse" width="256" height="256" viewBox="0 0 256 256"><image xlink:href="../../E874F726-2048-49F9-802D-CB8FF31B5891/assets/B1C7245618399390B198ABC85FA26FF2.png" width="256.00" height="256.00"></image></pattern></defs><g transform="matrix(1.00, 0.00, -0.00, -1.00, 0.0, 768.0)"><g><clipPath id="clip0x7fb876cad570"><path d="M 0.0 768.0 L 1024.0 768.0 L 1024.0 0.0 L 0.0 0.0 Z M 0.0 768.0 "></path></clipPath><g clip-path="url(#clip0x7fb876cad570)"><path d="M 0.0 0.0 L 1024.0 0.0 L 1024.0 768.0 L 0.0 768.0 Z M 0.0 0.0 " fill="url(#patternP1)"></path></g></g><text xml:space="preserve" font-family="Helvetica-Light,Helvetica" font-size="80.0" fill="#FEFFFF" transform="matrix(1.00, 0.00, -0.00, -1.00, 240.8, 622.4)">E</text><text xml:space="preserve" font-family="Helvetica-Light,Helvetica" font-size="80.0" fill="#FEFFFF" transform="matrix(1.00, 0.00, -0.00, -1.00, 289.6, 622.4)"> </text><text xml:space="preserve" font-family="Helvetica-Light,Helvetica" font-size="80.0" fill="#FEFFFF" transform="matrix(1.00, 0.00, -0.00, -1.00, 311.9, 622.4)">n</text><text xml:space="preserve" font-family="Helvetica-Light,Helvetica" font-size="80.0" fill="#FEFFFF" transform="matrix(1.00, 0.00, -0.00, -1.00, 356.4, 622.4)">ã</text><text xml:space="preserve" font-family="Helvetica-Light,Helvetica" font-size="80.0" fill="#FEFFFF" transform="matrix(1.00, 0.00, -0.00, -1.00, 400.8, 622.4)">o</text><text xml:space="preserve" font-family="Helvetica-Light,Helvetica" font-size="80.0" fill="#FEFFFF" transform="matrix(1.00, 0.00, -0.00, -1.00, 445.3, 622.4)"> </text><text xml:space="preserve" font-family="Helvetica-Light,Helvetica" font-size="80.0" fill="#FEFFFF" transform="matrix(1.00, 0.00, -0.00, -1.00, 467.6, 622.4)">é</text><text xml:space="preserve" font-family="Helvetica-Light,Helvetica" font-size="80.0" fill="#FEFFFF" transform="matrix(1.00, 0.00, -0.00, -1.00, 512.0, 622.4)"> </text><text xml:space="preserve" font-family="Helvetica-Light,Helvetica" font-size="80.0" fill="#FEFFFF" transform="matrix(1.00, 0.00, -0.00, -1.00, 534.3, 622.4)">s</text><text xml:space="preserve" font-family="Helvetica-Light,Helvetica" font-size="80.0" fill="#FEFFFF" transform="matrix(1.00, 0.00, -0.00, -1.00, 574.3, 622.4)">ó</text><text xml:space="preserve" font-family="Helvetica-Light,Helvetica" font-size="80.0" fill="#FEFFFF" transform="matrix(1.00, 0.00, -0.00, -1.00, 618.8, 622.4)"> </text><text xml:space="preserve" font-family="Helvetica-Light,Helvetica" font-size="80.0" fill="#FEFFFF" transform="matrix(1.00, 0.00, -0.00, -1.00, 641.0, 622.4)">i</text><text xml:space="preserve" font-family="Helvetica-Light,Helvetica" font-size="80.0" fill="#FEFFFF" transform="matrix(1.00, 0.00, -0.00, -1.00, 658.8, 622.4)">s</text><text xml:space="preserve" font-family="Helvetica-Light,Helvetica" font-size="80.0" fill="#FEFFFF" transform="matrix(1.00, 0.00, -0.00, -1.00, 698.8, 622.4)">s</text><text xml:space="preserve" font-family="Helvetica-Light,Helvetica" font-size="80.0" fill="#FEFFFF" transform="matrix(1.00, 0.00, -0.00, -1.00, 738.8, 622.4)">o</text><text xml:space="preserve" font-family="LucidaSansUnicode,Lucida Sans Unicode" font-size="24.0" fill="#FEFFFE" transform="matrix(1.00, 0.00, -0.00, -1.00, 87.7, 455.6)">•</text><text xml:space="preserve" font-family="LucidaSansUnicode,Lucida Sans Unicode" font-size="32.0" fill="#FEFFFE" transform="matrix(1.00, 0.00, -0.00, -1.00, 113.2, 453.1)">A</text><text xml:space="preserve" font-family="LucidaSansUnicode,Lucida Sans Unicode" font-size="32.0" fill="#FEFFFE" transform="matrix(1.00, 0.00, -0.00, -1.00, 135.3, 453.1)">c</text><text xml:space="preserve" font-family="LucidaSansUnicode,Lucida Sans Unicode" font-size="32.0" fill="#FEFFFE" transform="matrix(1.00, 0.00, -0.00, -1.00, 151.7, 453.1)">e</text><text xml:space="preserve" font-family="LucidaSansUnicode,Lucida Sans Unicode" font-size="32.0" fill="#FEFFFE" transform="matrix(1.00, 0.00, -0.00, -1.00, 169.5, 453.1)">s</text><text xml:space="preserve" font-family="LucidaSansUnicode,Lucida Sans Unicode" font-size="32.0" fill="#FEFFFE" transform="matrix(1.00, 0.00, -0.00, -1.00, 185.8, 453.1)">s</text><text xml:space="preserve" font-family="LucidaSansUnicode,Lucida Sans Unicode" font-size="32.0" fill="#FEFFFE" transform="matrix(1.00, 0.00, -0.00, -1.00, 202.1, 453.1)">i</text><text xml:space="preserve" font-family="LucidaSansUnicode,Lucida Sans Unicode" font-size="32.0" fill="#FEFFFE" transform="matrix(1.00, 0.00, -0.00, -1.00, 211.4, 453.1)">b</text><text xml:space="preserve" font-family="LucidaSansUnicode,Lucida Sans Unicode" font-size="32.0" fill="#FEFFFE" transform="matrix(1.00, 0.00, -0.00, -1.00, 231.6, 453.1)">i</text><text xml:space="preserve" font-family="LucidaSansUnicode,Lucida Sans Unicode" font-size="32.0" fill="#FEFFFE" transform="matrix(1.00, 0.00, -0.00, -1.00, 240.8, 453.1)">l</text><text xml:space="preserve" font-family="LucidaSansUnicode,Lucida Sans Unicode" font-size="32.0" fill="#FEFFFE" transform="matrix(1.00, 0.00, -0.00, -1.00, 250.0, 453.1)">i</text><text xml:space="preserve" font-family="LucidaSansUnicode,Lucida Sans Unicode" font-size="32.0" fill="#FEFFFE" transform="matrix(1.00, 0.00, -0.00, -1.00, 259.3, 453.1)">d</text><text xml:space="preserve" font-family="LucidaSansUnicode,Lucida Sans Unicode" font-size="32.0" fill="#FEFFFE" transform="matrix(1.00, 0.00, -0.00, -1.00, 279.5, 453.1)">a</text><text xml:space="preserve" font-family="LucidaSansUnicode,Lucida Sans Unicode" font-size="32.0" fill="#FEFFFE" transform="matrix(1.00, 0.00, -0.00, -1.00, 297.1, 453.1)">d</text><text xml:space="preserve" font-family="LucidaSansUnicode,Lucida Sans Unicode" font-size="32.0" fill="#FEFFFE" transform="matrix(1.00, 0.00, -0.00, -1.00, 317.3, 453.1)">e</text><text xml:space="preserve" font-family="LucidaSansUnicode,Lucida Sans Unicode" font-size="32.0" fill="#FEFFFE" transform="matrix(1.00, 0.00, -0.00, -1.00, 335.1, 453.1)">;</text><text xml:space="preserve" font-family="LucidaSansUnicode,Lucida Sans Unicode" font-size="32.0" fill="#FEFFFE" transform="matrix(1.00, 0.00, -0.00, -1.00, 345.3, 453.1)"> </text><text xml:space="preserve" font-family="LucidaSansUnicode,Lucida Sans Unicode" font-size="32.0" fill="#FEFFFE" transform="matrix(1.00, 0.00, -0.00, -1.00, 355.4, 453.1)"> </text><text xml:space="preserve" font-family="LucidaSansUnicode,Lucida Sans Unicode" font-size="24.0" fill="#FEFFFE" transform="matrix(1.00, 0.00, -0.00, -1.00, 87.7, 406.6)">•</text><text xml:space="preserve" font-family="LucidaSansUnicode,Lucida Sans Unicode" font-size="32.0" fill="#FEFFFE" transform="matrix(1.00, 0.00, -0.00, -1.00, 113.2, 404.1)">A</text><text xml:space="preserve" font-family="LucidaSansUnicode,Lucida Sans Unicode" font-size="32.0" fill="#FEFFFE" transform="matrix(1.00, 0.00, -0.00, -1.00, 135.3, 404.1)">u</text><text xml:space="preserve" font-family="LucidaSansUnicode,Lucida Sans Unicode" font-size="32.0" fill="#FEFFFE" transform="matrix(1.00, 0.00, -0.00, -1.00, 155.2, 404.1)">m</text><text xml:space="preserve" font-family="LucidaSansUnicode,Lucida Sans Unicode" font-size="32.0" fill="#FEFFFE" transform="matrix(1.00, 0.00, -0.00, -1.00, 185.0, 404.1)">e</text><text xml:space="preserve" font-family="LucidaSansUnicode,Lucida Sans Unicode" font-size="32.0" fill="#FEFFFE" transform="matrix(1.00, 0.00, -0.00, -1.00, 202.8, 404.1)">n</text><text xml:space="preserve" font-family="LucidaSansUnicode,Lucida Sans Unicode" font-size="32.0" fill="#FEFFFE" transform="matrix(1.00, 0.00, -0.00, -1.00, 222.7, 404.1)">t</text><text xml:space="preserve" font-family="LucidaSansUnicode,Lucida Sans Unicode" font-size="32.0" fill="#FEFFFE" transform="matrix(1.00, 0.00, -0.00, -1.00, 234.7, 404.1)">o</text><text xml:space="preserve" font-family="LucidaSansUnicode,Lucida Sans Unicode" font-size="32.0" fill="#FEFFFE" transform="matrix(1.00, 0.00, -0.00, -1.00, 254.3, 404.1)"> </text><text xml:space="preserve" font-family="LucidaSansUnicode,Lucida Sans Unicode" font-size="32.0" fill="#FEFFFE" transform="matrix(1.00, 0.00, -0.00, -1.00, 264.5, 404.1)">d</text><text xml:space="preserve" font-family="LucidaSansUnicode,Lucida Sans Unicode" font-size="32.0" fill="#FEFFFE" transform="matrix(1.00, 0.00, -0.00, -1.00, 284.6, 404.1)">o</text><text xml:space="preserve" font-family="LucidaSansUnicode,Lucida Sans Unicode" font-size="32.0" fill="#FEFFFE" transform="matrix(1.00, 0.00, -0.00, -1.00, 304.3, 404.1)"> </text><text xml:space="preserve" font-family="LucidaSansUnicode,Lucida Sans Unicode" font-size="32.0" fill="#FEFFFE" transform="matrix(1.00, 0.00, -0.00, -1.00, 314.4, 404.1)">n</text><text xml:space="preserve" font-family="LucidaSansUnicode,Lucida Sans Unicode" font-size="32.0" fill="#FEFFFE" transform="matrix(1.00, 0.00, -0.00, -1.00, 334.3, 404.1)">ú</text><text xml:space="preserve" font-family="LucidaSansUnicode,Lucida Sans Unicode" font-size="32.0" fill="#FEFFFE" transform="matrix(1.00, 0.00, -0.00, -1.00, 354.1, 404.1)">m</text><text xml:space="preserve" font-family="LucidaSansUnicode,Lucida Sans Unicode" font-size="32.0" fill="#FEFFFE" transform="matrix(1.00, 0.00, -0.00, -1.00, 384.0, 404.1)">e</text><text xml:space="preserve" font-family="LucidaSansUnicode,Lucida Sans Unicode" font-size="32.0" fill="#FEFFFE" transform="matrix(1.00, 0.00, -0.00, -1.00, 401.8, 404.1)">r</text><text xml:space="preserve" font-family="LucidaSansUnicode,Lucida Sans Unicode" font-size="32.0" fill="#FEFFFE" transform="matrix(1.00, 0.00, -0.00, -1.00, 414.9, 404.1)">o</text><text xml:space="preserve" font-family="LucidaSansUnicode,Lucida Sans Unicode" font-size="32.0" fill="#FEFFFE" transform="matrix(1.00, 0.00, -0.00, -1.00, 434.6, 404.1)"> </text><text xml:space="preserve" font-family="LucidaSansUnicode,Lucida Sans Unicode" font-size="32.0" fill="#FEFFFE" transform="matrix(1.00, 0.00, -0.00, -1.00, 444.7, 404.1)">d</text><text xml:space="preserve" font-family="LucidaSansUnicode,Lucida Sans Unicode" font-size="32.0" fill="#FEFFFE" transform="matrix(1.00, 0.00, -0.00, -1.00, 464.9, 404.1)">e</text><text xml:space="preserve" font-family="LucidaSansUnicode,Lucida Sans Unicode" font-size="32.0" fill="#FEFFFE" transform="matrix(1.00, 0.00, -0.00, -1.00, 482.7, 404.1)"> </text><text xml:space="preserve" font-family="LucidaSansUnicode,Lucida Sans Unicode" font-size="32.0" fill="#FEFFFE" transform="matrix(1.00, 0.00, -0.00, -1.00, 492.8, 404.1)">a</text><text xml:space="preserve" font-family="LucidaSansUnicode,Lucida Sans Unicode" font-size="32.0" fill="#FEFFFE" transform="matrix(1.00, 0.00, -0.00, -1.00, 510.5, 404.1)">c</text><text xml:space="preserve" font-family="LucidaSansUnicode,Lucida Sans Unicode" font-size="32.0" fill="#FEFFFE" transform="matrix(1.00, 0.00, -0.00, -1.00, 526.9, 404.1)">e</text><text xml:space="preserve" font-family="LucidaSansUnicode,Lucida Sans Unicode" font-size="32.0" fill="#FEFFFE" transform="matrix(1.00, 0.00, -0.00, -1.00, 544.7, 404.1)">s</text><text xml:space="preserve" font-family="LucidaSansUnicode,Lucida Sans Unicode" font-size="32.0" fill="#FEFFFE" transform="matrix(1.00, 0.00, -0.00, -1.00, 561.0, 404.1)">s</text><text xml:space="preserve" font-family="LucidaSansUnicode,Lucida Sans Unicode" font-size="32.0" fill="#FEFFFE" transform="matrix(1.00, 0.00, -0.00, -1.00, 577.4, 404.1)">o</text><text xml:space="preserve" font-family="LucidaSansUnicode,Lucida Sans Unicode" font-size="32.0" fill="#FEFFFE" transform="matrix(1.00, 0.00, -0.00, -1.00, 597.0, 404.1)">s</text><text xml:space="preserve" font-family="LucidaSansUnicode,Lucida Sans Unicode" font-size="32.0" fill="#FEFFFE" transform="matrix(1.00, 0.00, -0.00, -1.00, 613.3, 404.1)">;</text><text xml:space="preserve" font-family="LucidaSansUnicode,Lucida Sans Unicode" font-size="32.0" fill="#FEFFFE" transform="matrix(1.00, 0.00, -0.00, -1.00, 623.5, 404.1)"> </text><text xml:space="preserve" font-family="LucidaSansUnicode,Lucida Sans Unicode" font-size="24.0" fill="#FEFFFE" transform="matrix(1.00, 0.00, -0.00, -1.00, 87.7, 357.6)">•</text><text xml:space="preserve" font-family="LucidaSansUnicode,Lucida Sans Unicode" font-size="32.0" fill="#FEFFFE" transform="matrix(1.00, 0.00, -0.00, -1.00, 113.2, 355.1)">P</text><text xml:space="preserve" font-family="LucidaSansUnicode,Lucida Sans Unicode" font-size="32.0" fill="#FEFFFE" transform="matrix(1.00, 0.00, -0.00, -1.00, 130.9, 355.1)">a</text><text xml:space="preserve" font-family="LucidaSansUnicode,Lucida Sans Unicode" font-size="32.0" fill="#FEFFFE" transform="matrix(1.00, 0.00, -0.00, -1.00, 148.6, 355.1)">g</text><text xml:space="preserve" font-family="LucidaSansUnicode,Lucida Sans Unicode" font-size="32.0" fill="#FEFFFE" transform="matrix(1.00, 0.00, -0.00, -1.00, 168.5, 355.1)">e</text><text xml:space="preserve" font-family="LucidaSansUnicode,Lucida Sans Unicode" font-size="32.0" fill="#FEFFFE" transform="matrix(1.00, 0.00, -0.00, -1.00, 186.4, 355.1)">R</text><text xml:space="preserve" font-family="LucidaSansUnicode,Lucida Sans Unicode" font-size="32.0" fill="#FEFFFE" transform="matrix(1.00, 0.00, -0.00, -1.00, 206.6, 355.1)">a</text><text xml:space="preserve" font-family="LucidaSansUnicode,Lucida Sans Unicode" font-size="32.0" fill="#FEFFFE" transform="matrix(1.00, 0.00, -0.00, -1.00, 224.3, 355.1)">n</text><text xml:space="preserve" font-family="LucidaSansUnicode,Lucida Sans Unicode" font-size="32.0" fill="#FEFFFE" transform="matrix(1.00, 0.00, -0.00, -1.00, 244.2, 355.1)">k</text><text xml:space="preserve" font-family="LucidaSansUnicode,Lucida Sans Unicode" font-size="32.0" fill="#FEFFFE" transform="matrix(1.00, 0.00, -0.00, -1.00, 262.9, 355.1)">;</text><text xml:space="preserve" font-family="LucidaSansUnicode,Lucida Sans Unicode" font-size="32.0" fill="#FEFFFE" transform="matrix(1.00, 0.00, -0.00, -1.00, 273.0, 355.1)"> </text><text xml:space="preserve" font-family="LucidaSansUnicode,Lucida Sans Unicode" font-size="24.0" fill="#FEFFFE" transform="matrix(1.00, 0.00, -0.00, -1.00, 87.7, 308.6)">•</text><text xml:space="preserve" font-family="LucidaSansUnicode,Lucida Sans Unicode" font-size="32.0" fill="#FEFFFE" transform="matrix(1.00, 0.00, -0.00, -1.00, 113.2, 306.1)">P</text><text xml:space="preserve" font-family="LucidaSansUnicode,Lucida Sans Unicode" font-size="32.0" fill="#FEFFFE" transform="matrix(1.00, 0.00, -0.00, -1.00, 130.9, 306.1)">e</text><text xml:space="preserve" font-family="LucidaSansUnicode,Lucida Sans Unicode" font-size="32.0" fill="#FEFFFE" transform="matrix(1.00, 0.00, -0.00, -1.00, 148.7, 306.1)">r</text><text xml:space="preserve" font-family="LucidaSansUnicode,Lucida Sans Unicode" font-size="32.0" fill="#FEFFFE" transform="matrix(1.00, 0.00, -0.00, -1.00, 161.8, 306.1)">f</text><text xml:space="preserve" font-family="LucidaSansUnicode,Lucida Sans Unicode" font-size="32.0" fill="#FEFFFE" transform="matrix(1.00, 0.00, -0.00, -1.00, 173.6, 306.1)">o</text><text xml:space="preserve" font-family="LucidaSansUnicode,Lucida Sans Unicode" font-size="32.0" fill="#FEFFFE" transform="matrix(1.00, 0.00, -0.00, -1.00, 193.3, 306.1)">r</text><text xml:space="preserve" font-family="LucidaSansUnicode,Lucida Sans Unicode" font-size="32.0" fill="#FEFFFE" transform="matrix(1.00, 0.00, -0.00, -1.00, 206.4, 306.1)">m</text><text xml:space="preserve" font-family="LucidaSansUnicode,Lucida Sans Unicode" font-size="32.0" fill="#FEFFFE" transform="matrix(1.00, 0.00, -0.00, -1.00, 236.3, 306.1)">a</text><text xml:space="preserve" font-family="LucidaSansUnicode,Lucida Sans Unicode" font-size="32.0" fill="#FEFFFE" transform="matrix(1.00, 0.00, -0.00, -1.00, 254.0, 306.1)">n</text><text xml:space="preserve" font-family="LucidaSansUnicode,Lucida Sans Unicode" font-size="32.0" fill="#FEFFFE" transform="matrix(1.00, 0.00, -0.00, -1.00, 273.8, 306.1)">c</text><text xml:space="preserve" font-family="LucidaSansUnicode,Lucida Sans Unicode" font-size="32.0" fill="#FEFFFE" transform="matrix(1.00, 0.00, -0.00, -1.00, 290.2, 306.1)">e</text><text xml:space="preserve" font-family="LucidaSansUnicode,Lucida Sans Unicode" font-size="32.0" fill="#FEFFFE" transform="matrix(1.00, 0.00, -0.00, -1.00, 308.0, 306.1)">;</text><text xml:space="preserve" font-family="LucidaSansUnicode,Lucida Sans Unicode" font-size="32.0" fill="#FEFFFE" transform="matrix(1.00, 0.00, -0.00, -1.00, 318.2, 306.1)"> </text><text xml:space="preserve" font-family="LucidaSansUnicode,Lucida Sans Unicode" font-size="24.0" fill="#FEFFFE" transform="matrix(1.00, 0.00, -0.00, -1.00, 87.7, 259.6)">•</text><text xml:space="preserve" font-family="LucidaSansUnicode,Lucida Sans Unicode" font-size="32.0" fill="#FEFFFE" transform="matrix(1.00, 0.00, -0.00, -1.00, 113.2, 257.1)">M</text><text xml:space="preserve" font-family="LucidaSansUnicode,Lucida Sans Unicode" font-size="32.0" fill="#FEFFFE" transform="matrix(1.00, 0.00, -0.00, -1.00, 140.8, 257.1)">o</text><text xml:space="preserve" font-family="LucidaSansUnicode,Lucida Sans Unicode" font-size="32.0" fill="#FEFFFE" transform="matrix(1.00, 0.00, -0.00, -1.00, 160.5, 257.1)">b</text><text xml:space="preserve" font-family="LucidaSansUnicode,Lucida Sans Unicode" font-size="32.0" fill="#FEFFFE" transform="matrix(1.00, 0.00, -0.00, -1.00, 180.6, 257.1)">i</text><text xml:space="preserve" font-family="LucidaSansUnicode,Lucida Sans Unicode" font-size="32.0" fill="#FEFFFE" transform="matrix(1.00, 0.00, -0.00, -1.00, 189.9, 257.1)">l</text><text xml:space="preserve" font-family="LucidaSansUnicode,Lucida Sans Unicode" font-size="32.0" fill="#FEFFFE" transform="matrix(1.00, 0.00, -0.00, -1.00, 199.1, 257.1)">e</text><text xml:space="preserve" font-family="LucidaSansUnicode,Lucida Sans Unicode" font-size="32.0" fill="#FEFFFE" transform="matrix(1.00, 0.00, -0.00, -1.00, 217.0, 257.1)"> </text><text xml:space="preserve" font-family="LucidaSansUnicode,Lucida Sans Unicode" font-size="32.0" fill="#FEFFFE" transform="matrix(1.00, 0.00, -0.00, -1.00, 227.1, 257.1)">F</text><text xml:space="preserve" font-family="LucidaSansUnicode,Lucida Sans Unicode" font-size="32.0" fill="#FEFFFE" transform="matrix(1.00, 0.00, -0.00, -1.00, 244.3, 257.1)">r</text><text xml:space="preserve" font-family="LucidaSansUnicode,Lucida Sans Unicode" font-size="32.0" fill="#FEFFFE" transform="matrix(1.00, 0.00, -0.00, -1.00, 257.4, 257.1)">i</text><text xml:space="preserve" font-family="LucidaSansUnicode,Lucida Sans Unicode" font-size="32.0" fill="#FEFFFE" transform="matrix(1.00, 0.00, -0.00, -1.00, 266.6, 257.1)">e</text><text xml:space="preserve" font-family="LucidaSansUnicode,Lucida Sans Unicode" font-size="32.0" fill="#FEFFFE" transform="matrix(1.00, 0.00, -0.00, -1.00, 284.5, 257.1)">n</text><text xml:space="preserve" font-family="LucidaSansUnicode,Lucida Sans Unicode" font-size="32.0" fill="#FEFFFE" transform="matrix(1.00, 0.00, -0.00, -1.00, 304.3, 257.1)">d</text><text xml:space="preserve" font-family="LucidaSansUnicode,Lucida Sans Unicode" font-size="32.0" fill="#FEFFFE" transform="matrix(1.00, 0.00, -0.00, -1.00, 324.5, 257.1)">l</text><text xml:space="preserve" font-family="LucidaSansUnicode,Lucida Sans Unicode" font-size="32.0" fill="#FEFFFE" transform="matrix(1.00, 0.00, -0.00, -1.00, 333.7, 257.1)">y</text><text xml:space="preserve" font-family="LucidaSansUnicode,Lucida Sans Unicode" font-size="32.0" fill="#FEFFFE" transform="matrix(1.00, 0.00, -0.00, -1.00, 350.5, 257.1)">;</text><text xml:space="preserve" font-family="LucidaSansUnicode,Lucida Sans Unicode" font-size="32.0" fill="#FEFFFE" transform="matrix(1.00, 0.00, -0.00, -1.00, 360.6, 257.1)"> </text><text xml:space="preserve" font-family="LucidaSansUnicode,Lucida Sans Unicode" font-size="24.0" fill="#FEFFFE" transform="matrix(1.00, 0.00, -0.00, -1.00, 87.7, 210.6)">•</text><text xml:space="preserve" font-family="LucidaSansUnicode,Lucida Sans Unicode" font-size="32.0" fill="#FEFFFE" transform="matrix(1.00, 0.00, -0.00, -1.00, 113.2, 208.1)">R</text><text xml:space="preserve" font-family="LucidaSansUnicode,Lucida Sans Unicode" font-size="32.0" fill="#FEFFFE" transform="matrix(1.00, 0.00, -0.00, -1.00, 133.5, 208.1)">e</text><text xml:space="preserve" font-family="LucidaSansUnicode,Lucida Sans Unicode" font-size="32.0" fill="#FEFFFE" transform="matrix(1.00, 0.00, -0.00, -1.00, 151.3, 208.1)">t</text><text xml:space="preserve" font-family="LucidaSansUnicode,Lucida Sans Unicode" font-size="32.0" fill="#FEFFFE" transform="matrix(1.00, 0.00, -0.00, -1.00, 163.3, 208.1)">o</text><text xml:space="preserve" font-family="LucidaSansUnicode,Lucida Sans Unicode" font-size="32.0" fill="#FEFFFE" transform="matrix(1.00, 0.00, -0.00, -1.00, 182.9, 208.1)">r</text><text xml:space="preserve" font-family="LucidaSansUnicode,Lucida Sans Unicode" font-size="32.0" fill="#FEFFFE" transform="matrix(1.00, 0.00, -0.00, -1.00, 196.0, 208.1)">n</text><text xml:space="preserve" font-family="LucidaSansUnicode,Lucida Sans Unicode" font-size="32.0" fill="#FEFFFE" transform="matrix(1.00, 0.00, -0.00, -1.00, 215.9, 208.1)">o</text><text xml:space="preserve" font-family="LucidaSansUnicode,Lucida Sans Unicode" font-size="32.0" fill="#FEFFFE" transform="matrix(1.00, 0.00, -0.00, -1.00, 235.6, 208.1)"> </text><text xml:space="preserve" font-family="LucidaSansUnicode,Lucida Sans Unicode" font-size="32.0" fill="#FEFFFE" transform="matrix(1.00, 0.00, -0.00, -1.00, 245.7, 208.1)">d</text><text xml:space="preserve" font-family="LucidaSansUnicode,Lucida Sans Unicode" font-size="32.0" fill="#FEFFFE" transform="matrix(1.00, 0.00, -0.00, -1.00, 265.8, 208.1)">o</text><text xml:space="preserve" font-family="LucidaSansUnicode,Lucida Sans Unicode" font-size="32.0" fill="#FEFFFE" transform="matrix(1.00, 0.00, -0.00, -1.00, 285.5, 208.1)"> </text><text xml:space="preserve" font-family="LucidaSansUnicode,Lucida Sans Unicode" font-size="32.0" fill="#FEFFFE" transform="matrix(1.00, 0.00, -0.00, -1.00, 295.6, 208.1)">u</text><text xml:space="preserve" font-family="LucidaSansUnicode,Lucida Sans Unicode" font-size="32.0" fill="#FEFFFE" transform="matrix(1.00, 0.00, -0.00, -1.00, 315.5, 208.1)">s</text><text xml:space="preserve" font-family="LucidaSansUnicode,Lucida Sans Unicode" font-size="32.0" fill="#FEFFFE" transform="matrix(1.00, 0.00, -0.00, -1.00, 331.8, 208.1)">u</text><text xml:space="preserve" font-family="LucidaSansUnicode,Lucida Sans Unicode" font-size="32.0" fill="#FEFFFE" transform="matrix(1.00, 0.00, -0.00, -1.00, 351.6, 208.1)">á</text><text xml:space="preserve" font-family="LucidaSansUnicode,Lucida Sans Unicode" font-size="32.0" fill="#FEFFFE" transform="matrix(1.00, 0.00, -0.00, -1.00, 369.3, 208.1)">r</text><text xml:space="preserve" font-family="LucidaSansUnicode,Lucida Sans Unicode" font-size="32.0" fill="#FEFFFE" transform="matrix(1.00, 0.00, -0.00, -1.00, 382.4, 208.1)">i</text><text xml:space="preserve" font-family="LucidaSansUnicode,Lucida Sans Unicode" font-size="32.0" fill="#FEFFFE" transform="matrix(1.00, 0.00, -0.00, -1.00, 391.7, 208.1)">o</text><text xml:space="preserve" font-family="LucidaSansUnicode,Lucida Sans Unicode" font-size="32.0" fill="#FEFFFE" transform="matrix(1.00, 0.00, -0.00, -1.00, 411.3, 208.1)">;</text><text xml:space="preserve" font-family="LucidaSansUnicode,Lucida Sans Unicode" font-size="32.0" fill="#FEFFFE" transform="matrix(1.00, 0.00, -0.00, -1.00, 421.5, 208.1)"> </text><text xml:space="preserve" font-family="LucidaSansUnicode,Lucida Sans Unicode" font-size="24.0" fill="#FEFFFE" transform="matrix(1.00, 0.00, -0.00, -1.00, 87.7, 161.6)">•</text><text xml:space="preserve" font-family="LucidaSansUnicode,Lucida Sans Unicode" font-size="32.0" fill="#FEFFFE" transform="matrix(1.00, 0.00, -0.00, -1.00, 113.2, 159.1)">C</text><text xml:space="preserve" font-family="LucidaSansUnicode,Lucida Sans Unicode" font-size="32.0" fill="#FEFFFE" transform="matrix(1.00, 0.00, -0.00, -1.00, 135.4, 159.1)">a</text><text xml:space="preserve" font-family="LucidaSansUnicode,Lucida Sans Unicode" font-size="32.0" fill="#FEFFFE" transform="matrix(1.00, 0.00, -0.00, -1.00, 153.0, 159.1)">p</text><text xml:space="preserve" font-family="LucidaSansUnicode,Lucida Sans Unicode" font-size="32.0" fill="#FEFFFE" transform="matrix(1.00, 0.00, -0.00, -1.00, 173.2, 159.1)">a</text><text xml:space="preserve" font-family="LucidaSansUnicode,Lucida Sans Unicode" font-size="32.0" fill="#FEFFFE" transform="matrix(1.00, 0.00, -0.00, -1.00, 190.9, 159.1)">c</text><text xml:space="preserve" font-family="LucidaSansUnicode,Lucida Sans Unicode" font-size="32.0" fill="#FEFFFE" transform="matrix(1.00, 0.00, -0.00, -1.00, 207.3, 159.1)">i</text><text xml:space="preserve" font-family="LucidaSansUnicode,Lucida Sans Unicode" font-size="32.0" fill="#FEFFFE" transform="matrix(1.00, 0.00, -0.00, -1.00, 216.5, 159.1)">d</text><text xml:space="preserve" font-family="LucidaSansUnicode,Lucida Sans Unicode" font-size="32.0" fill="#FEFFFE" transform="matrix(1.00, 0.00, -0.00, -1.00, 236.7, 159.1)">a</text><text xml:space="preserve" font-family="LucidaSansUnicode,Lucida Sans Unicode" font-size="32.0" fill="#FEFFFE" transform="matrix(1.00, 0.00, -0.00, -1.00, 254.4, 159.1)">d</text><text xml:space="preserve" font-family="LucidaSansUnicode,Lucida Sans Unicode" font-size="32.0" fill="#FEFFFE" transform="matrix(1.00, 0.00, -0.00, -1.00, 274.5, 159.1)">e</text><text xml:space="preserve" font-family="LucidaSansUnicode,Lucida Sans Unicode" font-size="32.0" fill="#FEFFFE" transform="matrix(1.00, 0.00, -0.00, -1.00, 292.3, 159.1)"> </text><text xml:space="preserve" font-family="LucidaSansUnicode,Lucida Sans Unicode" font-size="32.0" fill="#FEFFFE" transform="matrix(1.00, 0.00, -0.00, -1.00, 302.5, 159.1)">d</text><text xml:space="preserve" font-family="LucidaSansUnicode,Lucida Sans Unicode" font-size="32.0" fill="#FEFFFE" transform="matrix(1.00, 0.00, -0.00, -1.00, 322.6, 159.1)">o</text><text xml:space="preserve" font-family="LucidaSansUnicode,Lucida Sans Unicode" font-size="32.0" fill="#FEFFFE" transform="matrix(1.00, 0.00, -0.00, -1.00, 342.3, 159.1)">s</text><text xml:space="preserve" font-family="LucidaSansUnicode,Lucida Sans Unicode" font-size="32.0" fill="#FEFFFE" transform="matrix(1.00, 0.00, -0.00, -1.00, 358.6, 159.1)"> </text><text xml:space="preserve" font-family="LucidaSansUnicode,Lucida Sans Unicode" font-size="32.0" fill="#FEFFFE" transform="matrix(1.00, 0.00, -0.00, -1.00, 368.7, 159.1)">d</text><text xml:space="preserve" font-family="LucidaSansUnicode,Lucida Sans Unicode" font-size="32.0" fill="#FEFFFE" transform="matrix(1.00, 0.00, -0.00, -1.00, 388.9, 159.1)">i</text><text xml:space="preserve" font-family="LucidaSansUnicode,Lucida Sans Unicode" font-size="32.0" fill="#FEFFFE" transform="matrix(1.00, 0.00, -0.00, -1.00, 398.2, 159.1)">s</text><text xml:space="preserve" font-family="LucidaSansUnicode,Lucida Sans Unicode" font-size="32.0" fill="#FEFFFE" transform="matrix(1.00, 0.00, -0.00, -1.00, 414.5, 159.1)">p</text><text xml:space="preserve" font-family="LucidaSansUnicode,Lucida Sans Unicode" font-size="32.0" fill="#FEFFFE" transform="matrix(1.00, 0.00, -0.00, -1.00, 434.6, 159.1)">o</text><text xml:space="preserve" font-family="LucidaSansUnicode,Lucida Sans Unicode" font-size="32.0" fill="#FEFFFE" transform="matrix(1.00, 0.00, -0.00, -1.00, 454.3, 159.1)">s</text><text xml:space="preserve" font-family="LucidaSansUnicode,Lucida Sans Unicode" font-size="32.0" fill="#FEFFFE" transform="matrix(1.00, 0.00, -0.00, -1.00, 470.6, 159.1)">i</text><text xml:space="preserve" font-family="LucidaSansUnicode,Lucida Sans Unicode" font-size="32.0" fill="#FEFFFE" transform="matrix(1.00, 0.00, -0.00, -1.00, 479.8, 159.1)">t</text><text xml:space="preserve" font-family="LucidaSansUnicode,Lucida Sans Unicode" font-size="32.0" fill="#FEFFFE" transform="matrix(1.00, 0.00, -0.00, -1.00, 491.8, 159.1)">i</text><text xml:space="preserve" font-family="LucidaSansUnicode,Lucida Sans Unicode" font-size="32.0" fill="#FEFFFE" transform="matrix(1.00, 0.00, -0.00, -1.00, 501.1, 159.1)">v</text><text xml:space="preserve" font-family="LucidaSansUnicode,Lucida Sans Unicode" font-size="32.0" fill="#FEFFFE" transform="matrix(1.00, 0.00, -0.00, -1.00, 517.6, 159.1)">o</text><text xml:space="preserve" font-family="LucidaSansUnicode,Lucida Sans Unicode" font-size="32.0" fill="#FEFFFE" transform="matrix(1.00, 0.00, -0.00, -1.00, 537.3, 159.1)">s</text><text xml:space="preserve" font-family="LucidaSansUnicode,Lucida Sans Unicode" font-size="32.0" fill="#FEFFFE" transform="matrix(1.00, 0.00, -0.00, -1.00, 553.6, 159.1)"> </text><text xml:space="preserve" font-family="LucidaSansUnicode,Lucida Sans Unicode" font-size="32.0" fill="#FEFFFE" transform="matrix(1.00, 0.00, -0.00, -1.00, 563.7, 159.1)">m</text><text xml:space="preserve" font-family="LucidaSansUnicode,Lucida Sans Unicode" font-size="32.0" fill="#FEFFFE" transform="matrix(1.00, 0.00, -0.00, -1.00, 593.6, 159.1)">ó</text><text xml:space="preserve" font-family="LucidaSansUnicode,Lucida Sans Unicode" font-size="32.0" fill="#FEFFFE" transform="matrix(1.00, 0.00, -0.00, -1.00, 613.2, 159.1)">v</text><text xml:space="preserve" font-family="LucidaSansUnicode,Lucida Sans Unicode" font-size="32.0" fill="#FEFFFE" transform="matrix(1.00, 0.00, -0.00, -1.00, 629.8, 159.1)">e</text><text xml:space="preserve" font-family="LucidaSansUnicode,Lucida Sans Unicode" font-size="32.0" fill="#FEFFFE" transform="matrix(1.00, 0.00, -0.00, -1.00, 647.6, 159.1)">i</text><text xml:space="preserve" font-family="LucidaSansUnicode,Lucida Sans Unicode" font-size="32.0" fill="#FEFFFE" transform="matrix(1.00, 0.00, -0.00, -1.00, 656.9, 159.1)">s</text><text xml:space="preserve" font-family="LucidaSansUnicode,Lucida Sans Unicode" font-size="32.0" fill="#FEFFFE" transform="matrix(1.00, 0.00, -0.00, -1.00, 673.2, 159.1)">.</text><text xml:space="preserve" font-family="Helvetica-Light,Helvetica" font-size="21.0" fill="#FEFFFF" transform="matrix(1.00, 0.00, -0.00, -1.00, 55.8, 35.8)">h</text><text xml:space="preserve" font-family="Helvetica-Light,Helvetica" font-size="21.0" fill="#FEFFFF" transform="matrix(1.00, 0.00, -0.00, -1.00, 67.4, 35.8)">t</text><text xml:space="preserve" font-family="Helvetica-Light,Helvetica" font-size="21.0" fill="#FEFFFF" transform="matrix(1.00, 0.00, -0.00, -1.00, 73.3, 35.8)">t</text><text xml:space="preserve" font-family="Helvetica-Light,Helvetica" font-size="21.0" fill="#FEFFFF" transform="matrix(1.00, 0.00, -0.00, -1.00, 79.1, 35.8)">p</text><text xml:space="preserve" font-family="Helvetica-Light,Helvetica" font-size="21.0" fill="#FEFFFF" transform="matrix(1.00, 0.00, -0.00, -1.00, 91.9, 35.8)">:</text><text xml:space="preserve" font-family="Helvetica-Light,Helvetica" font-size="21.0" fill="#FEFFFF" transform="matrix(1.00, 0.00, -0.00, -1.00, 97.8, 35.8)">/</text><text xml:space="preserve" font-family="Helvetica-Light,Helvetica" font-size="21.0" fill="#FEFFFF" transform="matrix(1.00, 0.00, -0.00, -1.00, 103.6, 35.8)">/</text><text xml:space="preserve" font-family="Helvetica-Light,Helvetica" font-size="21.0" fill="#FEFFFF" transform="matrix(1.00, 0.00, -0.00, -1.00, 109.5, 35.8)">w</text><text xml:space="preserve" font-family="Helvetica-Light,Helvetica" font-size="21.0" fill="#FEFFFF" transform="matrix(1.00, 0.00, -0.00, -1.00, 124.6, 35.8)">w</text><text xml:space="preserve" font-family="Helvetica-Light,Helvetica" font-size="21.0" fill="#FEFFFF" transform="matrix(1.00, 0.00, -0.00, -1.00, 139.8, 35.8)">w</text><text xml:space="preserve" font-family="Helvetica-Light,Helvetica" font-size="21.0" fill="#FEFFFF" transform="matrix(1.00, 0.00, -0.00, -1.00, 153.8, 35.8)">.</text><text xml:space="preserve" font-family="Helvetica-Light,Helvetica" font-size="21.0" fill="#FEFFFF" transform="matrix(1.00, 0.00, -0.00, -1.00, 159.6, 35.8)">w</text><text xml:space="preserve" font-family="Helvetica-Light,Helvetica" font-size="21.0" fill="#FEFFFF" transform="matrix(1.00, 0.00, -0.00, -1.00, 174.8, 35.8)">e</text><text xml:space="preserve" font-family="Helvetica-Light,Helvetica" font-size="21.0" fill="#FEFFFF" transform="matrix(1.00, 0.00, -0.00, -1.00, 186.5, 35.8)">b</text><text xml:space="preserve" font-family="Helvetica-Light,Helvetica" font-size="21.0" fill="#FEFFFF" transform="matrix(1.00, 0.00, -0.00, -1.00, 199.3, 35.8)">p</text><text xml:space="preserve" font-family="Helvetica-Light,Helvetica" font-size="21.0" fill="#FEFFFF" transform="matrix(1.00, 0.00, -0.00, -1.00, 212.1, 35.8)">e</text><text xml:space="preserve" font-family="Helvetica-Light,Helvetica" font-size="21.0" fill="#FEFFFF" transform="matrix(1.00, 0.00, -0.00, -1.00, 223.8, 35.8)">r</text><text xml:space="preserve" font-family="Helvetica-Light,Helvetica" font-size="21.0" fill="#FEFFFF" transform="matrix(1.00, 0.00, -0.00, -1.00, 231.2, 35.8)">f</text><text xml:space="preserve" font-family="Helvetica-Light,Helvetica" font-size="21.0" fill="#FEFFFF" transform="matrix(1.00, 0.00, -0.00, -1.00, 237.0, 35.8)">o</text><text xml:space="preserve" font-family="Helvetica-Light,Helvetica" font-size="21.0" fill="#FEFFFF" transform="matrix(1.00, 0.00, -0.00, -1.00, 248.7, 35.8)">r</text><text xml:space="preserve" font-family="Helvetica-Light,Helvetica" font-size="21.0" fill="#FEFFFF" transform="matrix(1.00, 0.00, -0.00, -1.00, 256.1, 35.8)">m</text><text xml:space="preserve" font-family="Helvetica-Light,Helvetica" font-size="21.0" fill="#FEFFFF" transform="matrix(1.00, 0.00, -0.00, -1.00, 273.5, 35.8)">a</text><text xml:space="preserve" font-family="Helvetica-Light,Helvetica" font-size="21.0" fill="#FEFFFF" transform="matrix(1.00, 0.00, -0.00, -1.00, 285.2, 35.8)">n</text><text xml:space="preserve" font-family="Helvetica-Light,Helvetica" font-size="21.0" fill="#FEFFFF" transform="matrix(1.00, 0.00, -0.00, -1.00, 296.9, 35.8)">c</text><text xml:space="preserve" font-family="Helvetica-Light,Helvetica" font-size="21.0" fill="#FEFFFF" transform="matrix(1.00, 0.00, -0.00, -1.00, 308.6, 35.8)">e</text><text xml:space="preserve" font-family="Helvetica-Light,Helvetica" font-size="21.0" fill="#FEFFFF" transform="matrix(1.00, 0.00, -0.00, -1.00, 320.3, 35.8)">t</text><text xml:space="preserve" font-family="Helvetica-Light,Helvetica" font-size="21.0" fill="#FEFFFF" transform="matrix(1.00, 0.00, -0.00, -1.00, 326.1, 35.8)">o</text><text xml:space="preserve" font-family="Helvetica-Light,Helvetica" font-size="21.0" fill="#FEFFFF" transform="matrix(1.00, 0.00, -0.00, -1.00, 337.8, 35.8)">d</text><text xml:space="preserve" font-family="Helvetica-Light,Helvetica" font-size="21.0" fill="#FEFFFF" transform="matrix(1.00, 0.00, -0.00, -1.00, 350.6, 35.8)">a</text><text xml:space="preserve" font-family="Helvetica-Light,Helvetica" font-size="21.0" fill="#FEFFFF" transform="matrix(1.00, 0.00, -0.00, -1.00, 362.3, 35.8)">y</text><text xml:space="preserve" font-family="Helvetica-Light,Helvetica" font-size="21.0" fill="#FEFFFF" transform="matrix(1.00, 0.00, -0.00, -1.00, 370.8, 35.8)">.</text><text xml:space="preserve" font-family="Helvetica-Light,Helvetica" font-size="21.0" fill="#FEFFFF" transform="matrix(1.00, 0.00, -0.00, -1.00, 376.7, 35.8)">c</text><text xml:space="preserve" font-family="Helvetica-Light,Helvetica" font-size="21.0" fill="#FEFFFF" transform="matrix(1.00, 0.00, -0.00, -1.00, 388.4, 35.8)">o</text><text xml:space="preserve" font-family="Helvetica-Light,Helvetica" font-size="21.0" fill="#FEFFFF" transform="matrix(1.00, 0.00, -0.00, -1.00, 400.0, 35.8)">m</text><text xml:space="preserve" font-family="Helvetica-Light,Helvetica" font-size="21.0" fill="#FEFFFF" transform="matrix(1.00, 0.00, -0.00, -1.00, 417.5, 35.8)">/</text><text xml:space="preserve" font-family="Helvetica-Light,Helvetica" font-size="21.0" fill="#FEFFFF" transform="matrix(1.00, 0.00, -0.00, -1.00, 423.4, 35.8)">2</text><text xml:space="preserve" font-family="Helvetica-Light,Helvetica" font-size="21.0" fill="#FEFFFF" transform="matrix(1.00, 0.00, -0.00, -1.00, 435.0, 35.8)">0</text><text xml:space="preserve" font-family="Helvetica-Light,Helvetica" font-size="21.0" fill="#FEFFFF" transform="matrix(1.00, 0.00, -0.00, -1.00, 446.7, 35.8)">1</text><text xml:space="preserve" font-family="Helvetica-Light,Helvetica" font-size="21.0" fill="#FEFFFF" transform="matrix(1.00, 0.00, -0.00, -1.00, 458.4, 35.8)">0</text><text xml:space="preserve" font-family="Helvetica-Light,Helvetica" font-size="21.0" fill="#FEFFFF" transform="matrix(1.00, 0.00, -0.00, -1.00, 470.1, 35.8)">/</text><text xml:space="preserve" font-family="Helvetica-Light,Helvetica" font-size="21.0" fill="#FEFFFF" transform="matrix(1.00, 0.00, -0.00, -1.00, 475.9, 35.8)">0</text><text xml:space="preserve" font-family="Helvetica-Light,Helvetica" font-size="21.0" fill="#FEFFFF" transform="matrix(1.00, 0.00, -0.00, -1.00, 487.6, 35.8)">6</text><text xml:space="preserve" font-family="Helvetica-Light,Helvetica" font-size="21.0" fill="#FEFFFF" transform="matrix(1.00, 0.00, -0.00, -1.00, 499.3, 35.8)">/</text><text xml:space="preserve" font-family="Helvetica-Light,Helvetica" font-size="21.0" fill="#FEFFFF" transform="matrix(1.00, 0.00, -0.00, -1.00, 505.1, 35.8)">1</text><text xml:space="preserve" font-family="Helvetica-Light,Helvetica" font-size="21.0" fill="#FEFFFF" transform="matrix(1.00, 0.00, -0.00, -1.00, 516.8, 35.8)">5</text><text xml:space="preserve" font-family="Helvetica-Light,Helvetica" font-size="21.0" fill="#FEFFFF" transform="matrix(1.00, 0.00, -0.00, -1.00, 528.4, 35.8)">/</text><text xml:space="preserve" font-family="Helvetica-Light,Helvetica" font-size="21.0" fill="#FEFFFF" transform="matrix(1.00, 0.00, -0.00, -1.00, 534.3, 35.8)">e</text><text xml:space="preserve" font-family="Helvetica-Light,Helvetica" font-size="21.0" fill="#FEFFFF" transform="matrix(1.00, 0.00, -0.00, -1.00, 546.0, 35.8)">v</text><text xml:space="preserve" font-family="Helvetica-Light,Helvetica" font-size="21.0" fill="#FEFFFF" transform="matrix(1.00, 0.00, -0.00, -1.00, 556.5, 35.8)">e</text><text xml:space="preserve" font-family="Helvetica-Light,Helvetica" font-size="21.0" fill="#FEFFFF" transform="matrix(1.00, 0.00, -0.00, -1.00, 568.1, 35.8)">r</text><text xml:space="preserve" font-family="Helvetica-Light,Helvetica" font-size="21.0" fill="#FEFFFF" transform="matrix(1.00, 0.00, -0.00, -1.00, 575.5, 35.8)">y</text><text xml:space="preserve" font-family="Helvetica-Light,Helvetica" font-size="21.0" fill="#FEFFFF" transform="matrix(1.00, 0.00, -0.00, -1.00, 586.0, 35.8)">t</text><text xml:space="preserve" font-family="Helvetica-Light,Helvetica" font-size="21.0" fill="#FEFFFF" transform="matrix(1.00, 0.00, -0.00, -1.00, 591.8, 35.8)">h</text><text xml:space="preserve" font-family="Helvetica-Light,Helvetica" font-size="21.0" fill="#FEFFFF" transform="matrix(1.00, 0.00, -0.00, -1.00, 603.5, 35.8)">i</text><text xml:space="preserve" font-family="Helvetica-Light,Helvetica" font-size="21.0" fill="#FEFFFF" transform="matrix(1.00, 0.00, -0.00, -1.00, 608.2, 35.8)">n</text><text xml:space="preserve" font-family="Helvetica-Light,Helvetica" font-size="21.0" fill="#FEFFFF" transform="matrix(1.00, 0.00, -0.00, -1.00, 619.9, 35.8)">g</text><text xml:space="preserve" font-family="Helvetica-Light,Helvetica" font-size="21.0" fill="#FEFFFF" transform="matrix(1.00, 0.00, -0.00, -1.00, 632.7, 35.8)">-</text><text xml:space="preserve" font-family="Helvetica-Light,Helvetica" font-size="21.0" fill="#FEFFFF" transform="matrix(1.00, 0.00, -0.00, -1.00, 639.7, 35.8)">y</text><text xml:space="preserve" font-family="Helvetica-Light,Helvetica" font-size="21.0" fill="#FEFFFF" transform="matrix(1.00, 0.00, -0.00, -1.00, 650.2, 35.8)">o</text><text xml:space="preserve" font-family="Helvetica-Light,Helvetica" font-size="21.0" fill="#FEFFFF" transform="matrix(1.00, 0.00, -0.00, -1.00, 661.9, 35.8)">u</text><text xml:space="preserve" font-family="Helvetica-Light,Helvetica" font-size="21.0" fill="#FEFFFF" transform="matrix(1.00, 0.00, -0.00, -1.00, 673.5, 35.8)">-</text><text xml:space="preserve" font-family="Helvetica-Light,Helvetica" font-size="21.0" fill="#FEFFFF" transform="matrix(1.00, 0.00, -0.00, -1.00, 680.5, 35.8)">w</text><text xml:space="preserve" font-family="Helvetica-Light,Helvetica" font-size="21.0" fill="#FEFFFF" transform="matrix(1.00, 0.00, -0.00, -1.00, 695.7, 35.8)">a</text><text xml:space="preserve" font-family="Helvetica-Light,Helvetica" font-size="21.0" fill="#FEFFFF" transform="matrix(1.00, 0.00, -0.00, -1.00, 707.4, 35.8)">n</text><text xml:space="preserve" font-family="Helvetica-Light,Helvetica" font-size="21.0" fill="#FEFFFF" transform="matrix(1.00, 0.00, -0.00, -1.00, 719.0, 35.8)">t</text><text xml:space="preserve" font-family="Helvetica-Light,Helvetica" font-size="21.0" fill="#FEFFFF" transform="matrix(1.00, 0.00, -0.00, -1.00, 724.9, 35.8)">e</text><text xml:space="preserve" font-family="Helvetica-Light,Helvetica" font-size="21.0" fill="#FEFFFF" transform="matrix(1.00, 0.00, -0.00, -1.00, 736.6, 35.8)">d</text><text xml:space="preserve" font-family="Helvetica-Light,Helvetica" font-size="21.0" fill="#FEFFFF" transform="matrix(1.00, 0.00, -0.00, -1.00, 749.4, 35.8)">-</text><text xml:space="preserve" font-family="Helvetica-Light,Helvetica" font-size="21.0" fill="#FEFFFF" transform="matrix(1.00, 0.00, -0.00, -1.00, 756.4, 35.8)">t</text><text xml:space="preserve" font-family="Helvetica-Light,Helvetica" font-size="21.0" fill="#FEFFFF" transform="matrix(1.00, 0.00, -0.00, -1.00, 762.2, 35.8)">o</text><text xml:space="preserve" font-family="Helvetica-Light,Helvetica" font-size="21.0" fill="#FEFFFF" transform="matrix(1.00, 0.00, -0.00, -1.00, 773.9, 35.8)">-</text><text xml:space="preserve" font-family="Helvetica-Light,Helvetica" font-size="21.0" fill="#FEFFFF" transform="matrix(1.00, 0.00, -0.00, -1.00, 780.9, 35.8)">k</text><text xml:space="preserve" font-family="Helvetica-Light,Helvetica" font-size="21.0" fill="#FEFFFF" transform="matrix(1.00, 0.00, -0.00, -1.00, 791.4, 35.8)">n</text><text xml:space="preserve" font-family="Helvetica-Light,Helvetica" font-size="21.0" fill="#FEFFFF" transform="matrix(1.00, 0.00, -0.00, -1.00, 803.1, 35.8)">o</text><text xml:space="preserve" font-family="Helvetica-Light,Helvetica" font-size="21.0" fill="#FEFFFF" transform="matrix(1.00, 0.00, -0.00, -1.00, 814.7, 35.8)">w</text><text xml:space="preserve" font-family="Helvetica-Light,Helvetica" font-size="21.0" fill="#FEFFFF" transform="matrix(1.00, 0.00, -0.00, -1.00, 829.9, 35.8)">-</text><text xml:space="preserve" font-family="Helvetica-Light,Helvetica" font-size="21.0" fill="#FEFFFF" transform="matrix(1.00, 0.00, -0.00, -1.00, 836.9, 35.8)">a</text><text xml:space="preserve" font-family="Helvetica-Light,Helvetica" font-size="21.0" fill="#FEFFFF" transform="matrix(1.00, 0.00, -0.00, -1.00, 848.6, 35.8)">b</text><text xml:space="preserve" font-family="Helvetica-Light,Helvetica" font-size="21.0" fill="#FEFFFF" transform="matrix(1.00, 0.00, -0.00, -1.00, 861.4, 35.8)">o</text><text xml:space="preserve" font-family="Helvetica-Light,Helvetica" font-size="21.0" fill="#FEFFFF" transform="matrix(1.00, 0.00, -0.00, -1.00, 873.1, 35.8)">u</text><text xml:space="preserve" font-family="Helvetica-Light,Helvetica" font-size="21.0" fill="#FEFFFF" transform="matrix(1.00, 0.00, -0.00, -1.00, 884.8, 35.8)">t</text><text xml:space="preserve" font-family="Helvetica-Light,Helvetica" font-size="21.0" fill="#FEFFFF" transform="matrix(1.00, 0.00, -0.00, -1.00, 890.6, 35.8)">-</text><text xml:space="preserve" font-family="Helvetica-Light,Helvetica" font-size="21.0" fill="#FEFFFF" transform="matrix(1.00, 0.00, -0.00, -1.00, 897.6, 35.8)">w</text><text xml:space="preserve" font-family="Helvetica-Light,Helvetica" font-size="21.0" fill="#FEFFFF" transform="matrix(1.00, 0.00, -0.00, -1.00, 912.7, 35.8)">e</text><text xml:space="preserve" font-family="Helvetica-Light,Helvetica" font-size="21.0" fill="#FEFFFF" transform="matrix(1.00, 0.00, -0.00, -1.00, 924.4, 35.8)">b</text><text xml:space="preserve" font-family="Helvetica-Light,Helvetica" font-size="21.0" fill="#FEFFFF" transform="matrix(1.00, 0.00, -0.00, -1.00, 937.3, 35.8)">-</text><g><clipPath id="clip0x7fb878304bd0"><path d="M 54.8 32.7 L 944.2 32.7 L 944.2 35.8 L 54.8 35.8 Z M 54.8 32.7 "></path></clipPath><g clip-path="url(#clip0x7fb878304bd0)"><path d="M 4.5 25.7 L 893.0 25.7 " fill="none" stroke="#FEFFFF" stroke-width="1.05" transform="matrix(1.00, 0.00, 0.00, -1.00, 51.3, 60.0)"></path></g></g><text xml:space="preserve" font-family="Helvetica-Light,Helvetica" font-size="21.0" fill="#FEFFFF" transform="matrix(1.00, 0.00, -0.00, -1.00, 436.6, 10.8)">p</text><text xml:space="preserve" font-family="Helvetica-Light,Helvetica" font-size="21.0" fill="#FEFFFF" transform="matrix(1.00, 0.00, -0.00, -1.00, 449.4, 10.8)">e</text><text xml:space="preserve" font-family="Helvetica-Light,Helvetica" font-size="21.0" fill="#FEFFFF" transform="matrix(1.00, 0.00, -0.00, -1.00, 461.1, 10.8)">r</text><text xml:space="preserve" font-family="Helvetica-Light,Helvetica" font-size="21.0" fill="#FEFFFF" transform="matrix(1.00, 0.00, -0.00, -1.00, 468.5, 10.8)">f</text><text xml:space="preserve" font-family="Helvetica-Light,Helvetica" font-size="21.0" fill="#FEFFFF" transform="matrix(1.00, 0.00, -0.00, -1.00, 474.3, 10.8)">o</text><text xml:space="preserve" font-family="Helvetica-Light,Helvetica" font-size="21.0" fill="#FEFFFF" transform="matrix(1.00, 0.00, -0.00, -1.00, 486.0, 10.8)">r</text><text xml:space="preserve" font-family="Helvetica-Light,Helvetica" font-size="21.0" fill="#FEFFFF" transform="matrix(1.00, 0.00, -0.00, -1.00, 493.4, 10.8)">m</text><text xml:space="preserve" font-family="Helvetica-Light,Helvetica" font-size="21.0" fill="#FEFFFF" transform="matrix(1.00, 0.00, -0.00, -1.00, 510.9, 10.8)">a</text><text xml:space="preserve" font-family="Helvetica-Light,Helvetica" font-size="21.0" fill="#FEFFFF" transform="matrix(1.00, 0.00, -0.00, -1.00, 522.5, 10.8)">n</text><text xml:space="preserve" font-family="Helvetica-Light,Helvetica" font-size="21.0" fill="#FEFFFF" transform="matrix(1.00, 0.00, -0.00, -1.00, 534.2, 10.8)">c</text><text xml:space="preserve" font-family="Helvetica-Light,Helvetica" font-size="21.0" fill="#FEFFFF" transform="matrix(1.00, 0.00, -0.00, -1.00, 545.9, 10.8)">e</text><text xml:space="preserve" font-family="Helvetica-Light,Helvetica" font-size="21.0" fill="#FEFFFF" transform="matrix(1.00, 0.00, -0.00, -1.00, 557.6, 10.8)">/</text><g><clipPath id="clip0x7fb87830ae80"><path d="M 435.6 7.7 L 563.4 7.7 L 563.4 10.8 L 435.6 10.8 Z M 435.6 7.7 "></path></clipPath><g clip-path="url(#clip0x7fb87830ae80)"><path d="M 385.3 50.7 L 512.1 50.7 " fill="none" stroke="#FEFFFF" stroke-width="1.05" transform="matrix(1.00, 0.00, 0.00, -1.00, 51.3, 60.0)"></path></g></g></g></svg>