<?xml version="1.0" encoding="UTF-8" standalone="no"?><svg xmlns="http://www.w3.org/2000/svg" xmlns:xlink="http://www.w3.org/1999/xlink" clip-rule="evenodd" stroke-miterlimit="10" viewBox="0 0 1024 768"><desc>SVG generated by Keynote</desc><defs><pattern id="patternP1" patternUnits="userSpaceOnUse" width="256" height="256" viewBox="0 0 256 256"><image xlink:href="../../E874F726-2048-49F9-802D-CB8FF31B5891/assets/B1C7245618399390B198ABC85FA26FF2.png" width="256.00" height="256.00"></image></pattern></defs><g transform="matrix(1.00, 0.00, -0.00, -1.00, 0.0, 768.0)"><g><clipPath id="clip0x7fb87867bf70"><path d="M 0.0 768.0 L 1024.0 768.0 L 1024.0 0.0 L 0.0 0.0 Z M 0.0 768.0 "></path></clipPath><g clip-path="url(#clip0x7fb87867bf70)"><path d="M 0.0 0.0 L 1024.0 0.0 L 1024.0 768.0 L 0.0 768.0 Z M 0.0 0.0 " fill="url(#patternP1)"></path></g></g><text xml:space="preserve" font-family="Helvetica-Light,Helvetica" font-size="80.0" fill="#FEFFFF" transform="matrix(1.00, 0.00, -0.00, -1.00, 228.2, 622.4)">G</text><text xml:space="preserve" font-family="Helvetica-Light,Helvetica" font-size="80.0" fill="#FEFFFF" transform="matrix(1.00, 0.00, -0.00, -1.00, 290.4, 622.4)">o</text><text xml:space="preserve" font-family="Helvetica-Light,Helvetica" font-size="80.0" fill="#FEFFFF" transform="matrix(1.00, 0.00, -0.00, -1.00, 334.9, 622.4)">o</text><text xml:space="preserve" font-family="Helvetica-Light,Helvetica" font-size="80.0" fill="#FEFFFF" transform="matrix(1.00, 0.00, -0.00, -1.00, 379.4, 622.4)">g</text><text xml:space="preserve" font-family="Helvetica-Light,Helvetica" font-size="80.0" fill="#FEFFFF" transform="matrix(1.00, 0.00, -0.00, -1.00, 428.3, 622.4)">l</text><text xml:space="preserve" font-family="Helvetica-Light,Helvetica" font-size="80.0" fill="#FEFFFF" transform="matrix(1.00, 0.00, -0.00, -1.00, 446.0, 622.4)">e</text><text xml:space="preserve" font-family="Helvetica-Light,Helvetica" font-size="80.0" fill="#FEFFFF" transform="matrix(1.00, 0.00, -0.00, -1.00, 490.5, 622.4)"> </text><text xml:space="preserve" font-family="Helvetica-Light,Helvetica" font-size="80.0" fill="#FEFFFF" transform="matrix(1.00, 0.00, -0.00, -1.00, 512.8, 622.4)">C</text><text xml:space="preserve" font-family="Helvetica-Light,Helvetica" font-size="80.0" fill="#FEFFFF" transform="matrix(1.00, 0.00, -0.00, -1.00, 570.5, 622.4)">h</text><text xml:space="preserve" font-family="Helvetica-Light,Helvetica" font-size="80.0" fill="#FEFFFF" transform="matrix(1.00, 0.00, -0.00, -1.00, 615.0, 622.4)">r</text><text xml:space="preserve" font-family="Helvetica-Light,Helvetica" font-size="80.0" fill="#FEFFFF" transform="matrix(1.00, 0.00, -0.00, -1.00, 640.2, 622.4)">o</text><text xml:space="preserve" font-family="Helvetica-Light,Helvetica" font-size="80.0" fill="#FEFFFF" transform="matrix(1.00, 0.00, -0.00, -1.00, 684.7, 622.4)">m</text><text xml:space="preserve" font-family="Helvetica-Light,Helvetica" font-size="80.0" fill="#FEFFFF" transform="matrix(1.00, 0.00, -0.00, -1.00, 751.3, 622.4)">e</text><g><clipPath id="clip0x7fb878767fb0"><path d="M 51.0 495.0 L 973.0 495.0 L 973.0 138.0 L 51.0 138.0 Z M 51.4 494.7 "></path></clipPath><g clip-path="url(#clip0x7fb878767fb0)"><g><clipPath id="clip0x7fb878768740"><path d="M 65.0 104.1 L 959.0 104.1 L 959.0 494.7 L 65.0 494.7 Z M 65.0 104.1 "></path></clipPath><g clip-path="url(#clip0x7fb878768740)"><path d="M 65.0 494.7 L 959.0 494.7 L 959.0 104.1 L 65.0 104.1 Z M 65.0 494.7 " fill="#FEFFFF" fill-opacity="0.00"></path></g></g></g></g><g><clipPath id="clip0x7fb878769940"><path d="M 51.0 495.0 L 973.0 495.0 L 973.0 138.0 L 51.0 138.0 Z M 51.4 494.7 "></path></clipPath><g clip-path="url(#clip0x7fb878769940)"><g><clipPath id="clip0x7fb87876a090"><path d="M 65.7 494.5 L 958.2 494.5 L 958.2 104.9 L 65.7 104.9 Z M 65.7 494.5 "></path></clipPath><g clip-path="url(#clip0x7fb87876a090)"><g><clipPath id="clip0x7fb87876a7e0"><path d="M 65.7 104.9 L 958.2 104.9 L 958.2 494.5 L 65.7 494.5 Z M 65.7 104.9 "></path></clipPath><g clip-path="url(#clip0x7fb87876a7e0)"><image xlink:href="0B152649FBF2E108C6673227390C8CFA.png" width="1280.00" height="800.00" transform="matrix(1.13, 0.00, -0.00, -1.13, -249.1, 811.8)"></image></g></g></g></g></g></g></g></svg>