<?xml version="1.0" encoding="UTF-8" standalone="no"?><svg xmlns="http://www.w3.org/2000/svg" xmlns:xlink="http://www.w3.org/1999/xlink" clip-rule="evenodd" stroke-miterlimit="10" viewBox="0 0 1024 768"><desc>SVG generated by Keynote</desc><defs><pattern id="patternP1" patternUnits="userSpaceOnUse" width="256" height="256" viewBox="0 0 256 256"><image xlink:href="../../E874F726-2048-49F9-802D-CB8FF31B5891/assets/B1C7245618399390B198ABC85FA26FF2.png" width="256.00" height="256.00"></image></pattern></defs><g transform="matrix(1.00, 0.00, -0.00, -1.00, 0.0, 768.0)"><g><clipPath id="clip0x7fb876cdb650"><path d="M 0.0 768.0 L 1024.0 768.0 L 1024.0 0.0 L 0.0 0.0 Z M 0.0 768.0 "></path></clipPath><g clip-path="url(#clip0x7fb876cdb650)"><path d="M 0.0 0.0 L 1024.0 0.0 L 1024.0 768.0 L 0.0 768.0 Z M 0.0 0.0 " fill="url(#patternP1)"></path></g></g><text xml:space="preserve" font-family="Helvetica-Light,Helvetica" font-size="80.0" fill="#FEFFFF" transform="matrix(1.00, 0.00, -0.00, -1.00, 332.7, 622.4)">P</text><text xml:space="preserve" font-family="Helvetica-Light,Helvetica" font-size="80.0" fill="#FEFFFF" transform="matrix(1.00, 0.00, -0.00, -1.00, 381.6, 622.4)">r</text><text xml:space="preserve" font-family="Helvetica-Light,Helvetica" font-size="80.0" fill="#FEFFFF" transform="matrix(1.00, 0.00, -0.00, -1.00, 406.8, 622.4)">o</text><text xml:space="preserve" font-family="Helvetica-Light,Helvetica" font-size="80.0" fill="#FEFFFF" transform="matrix(1.00, 0.00, -0.00, -1.00, 451.2, 622.4)">t</text><text xml:space="preserve" font-family="Helvetica-Light,Helvetica" font-size="80.0" fill="#FEFFFF" transform="matrix(1.00, 0.00, -0.00, -1.00, 473.5, 622.4)">ó</text><text xml:space="preserve" font-family="Helvetica-Light,Helvetica" font-size="80.0" fill="#FEFFFF" transform="matrix(1.00, 0.00, -0.00, -1.00, 518.0, 622.4)">t</text><text xml:space="preserve" font-family="Helvetica-Light,Helvetica" font-size="80.0" fill="#FEFFFF" transform="matrix(1.00, 0.00, -0.00, -1.00, 540.2, 622.4)">i</text><text xml:space="preserve" font-family="Helvetica-Light,Helvetica" font-size="80.0" fill="#FEFFFF" transform="matrix(1.00, 0.00, -0.00, -1.00, 558.0, 622.4)">p</text><text xml:space="preserve" font-family="Helvetica-Light,Helvetica" font-size="80.0" fill="#FEFFFF" transform="matrix(1.00, 0.00, -0.00, -1.00, 606.8, 622.4)">o</text><text xml:space="preserve" font-family="Helvetica-Light,Helvetica" font-size="80.0" fill="#FEFFFF" transform="matrix(1.00, 0.00, -0.00, -1.00, 651.3, 622.4)">s</text><text xml:space="preserve" font-family="LucidaSansUnicode,Lucida Sans Unicode" font-size="28.5" fill="#FDFDFD" transform="matrix(1.00, 0.00, -0.00, -1.00, 110.0, 425.0)">•</text><text xml:space="preserve" font-family="LucidaSansUnicode,Lucida Sans Unicode" font-size="38.0" fill="#FDFDFD" transform="matrix(1.00, 0.00, -0.00, -1.00, 131.7, 421.7)">L</text><text xml:space="preserve" font-family="LucidaSansUnicode,Lucida Sans Unicode" font-size="38.0" fill="#FDFDFD" transform="matrix(1.00, 0.00, -0.00, -1.00, 152.0, 421.7)">a</text><text xml:space="preserve" font-family="LucidaSansUnicode,Lucida Sans Unicode" font-size="38.0" fill="#FDFDFD" transform="matrix(1.00, 0.00, -0.00, -1.00, 173.0, 421.7)">y</text><text xml:space="preserve" font-family="LucidaSansUnicode,Lucida Sans Unicode" font-size="38.0" fill="#FDFDFD" transform="matrix(1.00, 0.00, -0.00, -1.00, 192.9, 421.7)">o</text><text xml:space="preserve" font-family="LucidaSansUnicode,Lucida Sans Unicode" font-size="38.0" fill="#FDFDFD" transform="matrix(1.00, 0.00, -0.00, -1.00, 216.2, 421.7)">u</text><text xml:space="preserve" font-family="LucidaSansUnicode,Lucida Sans Unicode" font-size="38.0" fill="#FDFDFD" transform="matrix(1.00, 0.00, -0.00, -1.00, 239.8, 421.7)">t</text><text xml:space="preserve" font-family="LucidaSansUnicode,Lucida Sans Unicode" font-size="38.0" fill="#FDFDFD" transform="matrix(1.00, 0.00, -0.00, -1.00, 254.0, 421.7)">;</text><text xml:space="preserve" font-family="LucidaSansUnicode,Lucida Sans Unicode" font-size="38.0" fill="#FDFDFD" transform="matrix(1.00, 0.00, -0.00, -1.00, 266.0, 421.7)"> </text><text xml:space="preserve" font-family="LucidaSansUnicode,Lucida Sans Unicode" font-size="28.5" fill="#FDFDFD" transform="matrix(1.00, 0.00, -0.00, -1.00, 110.0, 366.0)">•</text><text xml:space="preserve" font-family="LucidaSansUnicode,Lucida Sans Unicode" font-size="38.0" fill="#FDFDFD" transform="matrix(1.00, 0.00, -0.00, -1.00, 131.7, 362.7)">F</text><text xml:space="preserve" font-family="LucidaSansUnicode,Lucida Sans Unicode" font-size="38.0" fill="#FDFDFD" transform="matrix(1.00, 0.00, -0.00, -1.00, 152.1, 362.7)">o</text><text xml:space="preserve" font-family="LucidaSansUnicode,Lucida Sans Unicode" font-size="38.0" fill="#FDFDFD" transform="matrix(1.00, 0.00, -0.00, -1.00, 175.5, 362.7)">n</text><text xml:space="preserve" font-family="LucidaSansUnicode,Lucida Sans Unicode" font-size="38.0" fill="#FDFDFD" transform="matrix(1.00, 0.00, -0.00, -1.00, 199.0, 362.7)">t</text><text xml:space="preserve" font-family="LucidaSansUnicode,Lucida Sans Unicode" font-size="38.0" fill="#FDFDFD" transform="matrix(1.00, 0.00, -0.00, -1.00, 213.3, 362.7)">e</text><text xml:space="preserve" font-family="LucidaSansUnicode,Lucida Sans Unicode" font-size="38.0" fill="#FDFDFD" transform="matrix(1.00, 0.00, -0.00, -1.00, 234.4, 362.7)">s</text><text xml:space="preserve" font-family="LucidaSansUnicode,Lucida Sans Unicode" font-size="38.0" fill="#FDFDFD" transform="matrix(1.00, 0.00, -0.00, -1.00, 253.8, 362.7)">;</text><text xml:space="preserve" font-family="LucidaSansUnicode,Lucida Sans Unicode" font-size="38.0" fill="#FDFDFD" transform="matrix(1.00, 0.00, -0.00, -1.00, 265.8, 362.7)"> </text><text xml:space="preserve" font-family="LucidaSansUnicode,Lucida Sans Unicode" font-size="28.5" fill="#FDFDFD" transform="matrix(1.00, 0.00, -0.00, -1.00, 110.0, 307.0)">•</text><text xml:space="preserve" font-family="LucidaSansUnicode,Lucida Sans Unicode" font-size="38.0" fill="#FDFDFD" transform="matrix(1.00, 0.00, -0.00, -1.00, 131.7, 303.7)">I</text><text xml:space="preserve" font-family="LucidaSansUnicode,Lucida Sans Unicode" font-size="38.0" fill="#FDFDFD" transform="matrix(1.00, 0.00, -0.00, -1.00, 142.7, 303.7)">m</text><text xml:space="preserve" font-family="LucidaSansUnicode,Lucida Sans Unicode" font-size="38.0" fill="#FDFDFD" transform="matrix(1.00, 0.00, -0.00, -1.00, 178.1, 303.7)">a</text><text xml:space="preserve" font-family="LucidaSansUnicode,Lucida Sans Unicode" font-size="38.0" fill="#FDFDFD" transform="matrix(1.00, 0.00, -0.00, -1.00, 199.1, 303.7)">g</text><text xml:space="preserve" font-family="LucidaSansUnicode,Lucida Sans Unicode" font-size="38.0" fill="#FDFDFD" transform="matrix(1.00, 0.00, -0.00, -1.00, 222.8, 303.7)">e</text><text xml:space="preserve" font-family="LucidaSansUnicode,Lucida Sans Unicode" font-size="38.0" fill="#FDFDFD" transform="matrix(1.00, 0.00, -0.00, -1.00, 244.0, 303.7)">m</text><text xml:space="preserve" font-family="LucidaSansUnicode,Lucida Sans Unicode" font-size="38.0" fill="#FDFDFD" transform="matrix(1.00, 0.00, -0.00, -1.00, 279.4, 303.7)">;</text><text xml:space="preserve" font-family="LucidaSansUnicode,Lucida Sans Unicode" font-size="38.0" fill="#FDFDFD" transform="matrix(1.00, 0.00, -0.00, -1.00, 291.4, 303.7)"> </text><text xml:space="preserve" font-family="LucidaSansUnicode,Lucida Sans Unicode" font-size="28.5" fill="#FDFDFD" transform="matrix(1.00, 0.00, -0.00, -1.00, 110.0, 248.0)">•</text><text xml:space="preserve" font-family="LucidaSansUnicode,Lucida Sans Unicode" font-size="38.0" fill="#FDFDFD" transform="matrix(1.00, 0.00, -0.00, -1.00, 131.7, 244.7)">V</text><text xml:space="preserve" font-family="LucidaSansUnicode,Lucida Sans Unicode" font-size="38.0" fill="#FDFDFD" transform="matrix(1.00, 0.00, -0.00, -1.00, 156.6, 244.7)">í</text><text xml:space="preserve" font-family="LucidaSansUnicode,Lucida Sans Unicode" font-size="38.0" fill="#FDFDFD" transform="matrix(1.00, 0.00, -0.00, -1.00, 167.6, 244.7)">d</text><text xml:space="preserve" font-family="LucidaSansUnicode,Lucida Sans Unicode" font-size="38.0" fill="#FDFDFD" transform="matrix(1.00, 0.00, -0.00, -1.00, 191.5, 244.7)">e</text><text xml:space="preserve" font-family="LucidaSansUnicode,Lucida Sans Unicode" font-size="38.0" fill="#FDFDFD" transform="matrix(1.00, 0.00, -0.00, -1.00, 212.7, 244.7)">o</text><text xml:space="preserve" font-family="LucidaSansUnicode,Lucida Sans Unicode" font-size="38.0" fill="#FDFDFD" transform="matrix(1.00, 0.00, -0.00, -1.00, 236.0, 244.7)">;</text><text xml:space="preserve" font-family="LucidaSansUnicode,Lucida Sans Unicode" font-size="38.0" fill="#FDFDFD" transform="matrix(1.00, 0.00, -0.00, -1.00, 248.1, 244.7)"> </text><text xml:space="preserve" font-family="LucidaSansUnicode,Lucida Sans Unicode" font-size="28.5" fill="#FDFDFD" transform="matrix(1.00, 0.00, -0.00, -1.00, 110.0, 189.0)">•</text><text xml:space="preserve" font-family="LucidaSansUnicode,Lucida Sans Unicode" font-size="38.0" fill="#FDFDFD" transform="matrix(1.00, 0.00, -0.00, -1.00, 131.7, 185.7)">P</text><text xml:space="preserve" font-family="LucidaSansUnicode,Lucida Sans Unicode" font-size="38.0" fill="#FDFDFD" transform="matrix(1.00, 0.00, -0.00, -1.00, 152.7, 185.7)">á</text><text xml:space="preserve" font-family="LucidaSansUnicode,Lucida Sans Unicode" font-size="38.0" fill="#FDFDFD" transform="matrix(1.00, 0.00, -0.00, -1.00, 173.7, 185.7)">g</text><text xml:space="preserve" font-family="LucidaSansUnicode,Lucida Sans Unicode" font-size="38.0" fill="#FDFDFD" transform="matrix(1.00, 0.00, -0.00, -1.00, 197.4, 185.7)">i</text><text xml:space="preserve" font-family="LucidaSansUnicode,Lucida Sans Unicode" font-size="38.0" fill="#FDFDFD" transform="matrix(1.00, 0.00, -0.00, -1.00, 208.4, 185.7)">n</text><text xml:space="preserve" font-family="LucidaSansUnicode,Lucida Sans Unicode" font-size="38.0" fill="#FDFDFD" transform="matrix(1.00, 0.00, -0.00, -1.00, 232.0, 185.7)">a</text><text xml:space="preserve" font-family="LucidaSansUnicode,Lucida Sans Unicode" font-size="38.0" fill="#FDFDFD" transform="matrix(1.00, 0.00, -0.00, -1.00, 253.0, 185.7)">.</text></g></svg>