<?xml version="1.0" encoding="UTF-8" standalone="no"?><svg xmlns="http://www.w3.org/2000/svg" xmlns:xlink="http://www.w3.org/1999/xlink" clip-rule="evenodd" stroke-miterlimit="10" viewBox="0 0 1024 768"><desc>SVG generated by Keynote</desc><defs><pattern id="patternP1" patternUnits="userSpaceOnUse" width="256" height="256" viewBox="0 0 256 256"><image xlink:href="../../E874F726-2048-49F9-802D-CB8FF31B5891/assets/B1C7245618399390B198ABC85FA26FF2.png" width="256.00" height="256.00"></image></pattern></defs><g transform="matrix(1.00, 0.00, -0.00, -1.00, 0.0, 768.0)"><g><clipPath id="clip0x7fb8786d0890"><path d="M 0.0 768.0 L 1024.0 768.0 L 1024.0 0.0 L 0.0 0.0 Z M 0.0 768.0 "></path></clipPath><g clip-path="url(#clip0x7fb8786d0890)"><path d="M 0.0 0.0 L 1024.0 0.0 L 1024.0 768.0 L 0.0 768.0 Z M 0.0 0.0 " fill="url(#patternP1)"></path></g></g><text xml:space="preserve" font-family="Helvetica-Light,Helvetica" font-size="80.0" fill="#FEFFFF" transform="matrix(1.00, 0.00, -0.00, -1.00, 216.4, 622.4)">I</text><text xml:space="preserve" font-family="Helvetica-Light,Helvetica" font-size="80.0" fill="#FEFFFF" transform="matrix(1.00, 0.00, -0.00, -1.00, 238.6, 622.4)">n</text><text xml:space="preserve" font-family="Helvetica-Light,Helvetica" font-size="80.0" fill="#FEFFFF" transform="matrix(1.00, 0.00, -0.00, -1.00, 283.1, 622.4)">t</text><text xml:space="preserve" font-family="Helvetica-Light,Helvetica" font-size="80.0" fill="#FEFFFF" transform="matrix(1.00, 0.00, -0.00, -1.00, 305.3, 622.4)">e</text><text xml:space="preserve" font-family="Helvetica-Light,Helvetica" font-size="80.0" fill="#FEFFFF" transform="matrix(1.00, 0.00, -0.00, -1.00, 349.8, 622.4)">r</text><text xml:space="preserve" font-family="Helvetica-Light,Helvetica" font-size="80.0" fill="#FEFFFF" transform="matrix(1.00, 0.00, -0.00, -1.00, 377.9, 622.4)">n</text><text xml:space="preserve" font-family="Helvetica-Light,Helvetica" font-size="80.0" fill="#FEFFFF" transform="matrix(1.00, 0.00, -0.00, -1.00, 422.4, 622.4)">e</text><text xml:space="preserve" font-family="Helvetica-Light,Helvetica" font-size="80.0" fill="#FEFFFF" transform="matrix(1.00, 0.00, -0.00, -1.00, 466.8, 622.4)">t</text><text xml:space="preserve" font-family="Helvetica-Light,Helvetica" font-size="80.0" fill="#FEFFFF" transform="matrix(1.00, 0.00, -0.00, -1.00, 489.1, 622.4)"> </text><text xml:space="preserve" font-family="Helvetica-Light,Helvetica" font-size="80.0" fill="#FEFFFF" transform="matrix(1.00, 0.00, -0.00, -1.00, 511.3, 622.4)">E</text><text xml:space="preserve" font-family="Helvetica-Light,Helvetica" font-size="80.0" fill="#FEFFFF" transform="matrix(1.00, 0.00, -0.00, -1.00, 560.2, 622.4)">x</text><text xml:space="preserve" font-family="Helvetica-Light,Helvetica" font-size="80.0" fill="#FEFFFF" transform="matrix(1.00, 0.00, -0.00, -1.00, 600.2, 622.4)">p</text><text xml:space="preserve" font-family="Helvetica-Light,Helvetica" font-size="80.0" fill="#FEFFFF" transform="matrix(1.00, 0.00, -0.00, -1.00, 649.1, 622.4)">l</text><text xml:space="preserve" font-family="Helvetica-Light,Helvetica" font-size="80.0" fill="#FEFFFF" transform="matrix(1.00, 0.00, -0.00, -1.00, 666.8, 622.4)">o</text><text xml:space="preserve" font-family="Helvetica-Light,Helvetica" font-size="80.0" fill="#FEFFFF" transform="matrix(1.00, 0.00, -0.00, -1.00, 711.3, 622.4)">r</text><text xml:space="preserve" font-family="Helvetica-Light,Helvetica" font-size="80.0" fill="#FEFFFF" transform="matrix(1.00, 0.00, -0.00, -1.00, 736.5, 622.4)">e</text><text xml:space="preserve" font-family="Helvetica-Light,Helvetica" font-size="80.0" fill="#FEFFFF" transform="matrix(1.00, 0.00, -0.00, -1.00, 781.0, 622.4)">r</text><text xml:space="preserve" font-family="LucidaSansUnicode,Lucida Sans Unicode" font-size="12.0" fill="#FEFFFE" transform="matrix(1.00, 0.00, -0.00, -1.00, 301.5, 144.3)">I</text><text xml:space="preserve" font-family="LucidaSansUnicode,Lucida Sans Unicode" font-size="12.0" fill="#FEFFFE" transform="matrix(1.00, 0.00, -0.00, -1.00, 305.0, 144.3)">n</text><text xml:space="preserve" font-family="LucidaSansUnicode,Lucida Sans Unicode" font-size="12.0" fill="#FEFFFE" transform="matrix(1.00, 0.00, -0.00, -1.00, 312.4, 144.3)">t</text><text xml:space="preserve" font-family="LucidaSansUnicode,Lucida Sans Unicode" font-size="12.0" fill="#FEFFFE" transform="matrix(1.00, 0.00, -0.00, -1.00, 316.9, 144.3)">e</text><text xml:space="preserve" font-family="LucidaSansUnicode,Lucida Sans Unicode" font-size="12.0" fill="#FEFFFE" transform="matrix(1.00, 0.00, -0.00, -1.00, 323.6, 144.3)">r</text><text xml:space="preserve" font-family="LucidaSansUnicode,Lucida Sans Unicode" font-size="12.0" fill="#FEFFFE" transform="matrix(1.00, 0.00, -0.00, -1.00, 328.5, 144.3)">n</text><text xml:space="preserve" font-family="LucidaSansUnicode,Lucida Sans Unicode" font-size="12.0" fill="#FEFFFE" transform="matrix(1.00, 0.00, -0.00, -1.00, 336.0, 144.3)">e</text><text xml:space="preserve" font-family="LucidaSansUnicode,Lucida Sans Unicode" font-size="12.0" fill="#FEFFFE" transform="matrix(1.00, 0.00, -0.00, -1.00, 342.7, 144.3)">t</text><text xml:space="preserve" font-family="LucidaSansUnicode,Lucida Sans Unicode" font-size="12.0" fill="#FEFFFE" transform="matrix(1.00, 0.00, -0.00, -1.00, 347.2, 144.3)"> </text><text xml:space="preserve" font-family="LucidaSansUnicode,Lucida Sans Unicode" font-size="12.0" fill="#FEFFFE" transform="matrix(1.00, 0.00, -0.00, -1.00, 351.0, 144.3)">E</text><text xml:space="preserve" font-family="LucidaSansUnicode,Lucida Sans Unicode" font-size="12.0" fill="#FEFFFE" transform="matrix(1.00, 0.00, -0.00, -1.00, 357.5, 144.3)">x</text><text xml:space="preserve" font-family="LucidaSansUnicode,Lucida Sans Unicode" font-size="12.0" fill="#FEFFFE" transform="matrix(1.00, 0.00, -0.00, -1.00, 364.8, 144.3)">p</text><text xml:space="preserve" font-family="LucidaSansUnicode,Lucida Sans Unicode" font-size="12.0" fill="#FEFFFE" transform="matrix(1.00, 0.00, -0.00, -1.00, 372.4, 144.3)">l</text><text xml:space="preserve" font-family="LucidaSansUnicode,Lucida Sans Unicode" font-size="12.0" fill="#FEFFFE" transform="matrix(1.00, 0.00, -0.00, -1.00, 375.8, 144.3)">o</text><text xml:space="preserve" font-family="LucidaSansUnicode,Lucida Sans Unicode" font-size="12.0" fill="#FEFFFE" transform="matrix(1.00, 0.00, -0.00, -1.00, 383.2, 144.3)">r</text><text xml:space="preserve" font-family="LucidaSansUnicode,Lucida Sans Unicode" font-size="12.0" fill="#FEFFFE" transform="matrix(1.00, 0.00, -0.00, -1.00, 388.1, 144.3)">e</text><text xml:space="preserve" font-family="LucidaSansUnicode,Lucida Sans Unicode" font-size="12.0" fill="#FEFFFE" transform="matrix(1.00, 0.00, -0.00, -1.00, 394.8, 144.3)">r</text><text xml:space="preserve" font-family="LucidaSansUnicode,Lucida Sans Unicode" font-size="12.0" fill="#FEFFFE" transform="matrix(1.00, 0.00, -0.00, -1.00, 399.7, 144.3)"> </text><text xml:space="preserve" font-family="LucidaSansUnicode,Lucida Sans Unicode" font-size="12.0" fill="#FEFFFE" transform="matrix(1.00, 0.00, -0.00, -1.00, 403.5, 144.3)">e</text><text xml:space="preserve" font-family="LucidaSansUnicode,Lucida Sans Unicode" font-size="12.0" fill="#FEFFFE" transform="matrix(1.00, 0.00, -0.00, -1.00, 410.2, 144.3)">x</text><text xml:space="preserve" font-family="LucidaSansUnicode,Lucida Sans Unicode" font-size="12.0" fill="#FEFFFE" transform="matrix(1.00, 0.00, -0.00, -1.00, 417.6, 144.3)">e</text><text xml:space="preserve" font-family="LucidaSansUnicode,Lucida Sans Unicode" font-size="12.0" fill="#FEFFFE" transform="matrix(1.00, 0.00, -0.00, -1.00, 424.3, 144.3)">c</text><text xml:space="preserve" font-family="LucidaSansUnicode,Lucida Sans Unicode" font-size="12.0" fill="#FEFFFE" transform="matrix(1.00, 0.00, -0.00, -1.00, 430.4, 144.3)">u</text><text xml:space="preserve" font-family="LucidaSansUnicode,Lucida Sans Unicode" font-size="12.0" fill="#FEFFFE" transform="matrix(1.00, 0.00, -0.00, -1.00, 437.8, 144.3)">t</text><text xml:space="preserve" font-family="LucidaSansUnicode,Lucida Sans Unicode" font-size="12.0" fill="#FEFFFE" transform="matrix(1.00, 0.00, -0.00, -1.00, 442.3, 144.3)">a</text><text xml:space="preserve" font-family="LucidaSansUnicode,Lucida Sans Unicode" font-size="12.0" fill="#FEFFFE" transform="matrix(1.00, 0.00, -0.00, -1.00, 449.0, 144.3)">n</text><text xml:space="preserve" font-family="LucidaSansUnicode,Lucida Sans Unicode" font-size="12.0" fill="#FEFFFE" transform="matrix(1.00, 0.00, -0.00, -1.00, 456.4, 144.3)">d</text><text xml:space="preserve" font-family="LucidaSansUnicode,Lucida Sans Unicode" font-size="12.0" fill="#FEFFFE" transform="matrix(1.00, 0.00, -0.00, -1.00, 464.0, 144.3)">o</text><text xml:space="preserve" font-family="LucidaSansUnicode,Lucida Sans Unicode" font-size="12.0" fill="#FEFFFE" transform="matrix(1.00, 0.00, -0.00, -1.00, 471.3, 144.3)"> </text><text xml:space="preserve" font-family="LucidaSansUnicode,Lucida Sans Unicode" font-size="12.0" fill="#FEFFFE" transform="matrix(1.00, 0.00, -0.00, -1.00, 475.1, 144.3)">p</text><text xml:space="preserve" font-family="LucidaSansUnicode,Lucida Sans Unicode" font-size="12.0" fill="#FEFFFE" transform="matrix(1.00, 0.00, -0.00, -1.00, 482.7, 144.3)">r</text><text xml:space="preserve" font-family="LucidaSansUnicode,Lucida Sans Unicode" font-size="12.0" fill="#FEFFFE" transform="matrix(1.00, 0.00, -0.00, -1.00, 487.6, 144.3)">o</text><text xml:space="preserve" font-family="LucidaSansUnicode,Lucida Sans Unicode" font-size="12.0" fill="#FEFFFE" transform="matrix(1.00, 0.00, -0.00, -1.00, 495.0, 144.3)">t</text><text xml:space="preserve" font-family="LucidaSansUnicode,Lucida Sans Unicode" font-size="12.0" fill="#FEFFFE" transform="matrix(1.00, 0.00, -0.00, -1.00, 499.5, 144.3)">รณ</text><text xml:space="preserve" font-family="LucidaSansUnicode,Lucida Sans Unicode" font-size="12.0" fill="#FEFFFE" transform="matrix(1.00, 0.00, -0.00, -1.00, 506.8, 144.3)">t</text><text xml:space="preserve" font-family="LucidaSansUnicode,Lucida Sans Unicode" font-size="12.0" fill="#FEFFFE" transform="matrix(1.00, 0.00, -0.00, -1.00, 511.3, 144.3)">i</text><text xml:space="preserve" font-family="LucidaSansUnicode,Lucida Sans Unicode" font-size="12.0" fill="#FEFFFE" transform="matrix(1.00, 0.00, -0.00, -1.00, 514.8, 144.3)">p</text><text xml:space="preserve" font-family="LucidaSansUnicode,Lucida Sans Unicode" font-size="12.0" fill="#FEFFFE" transform="matrix(1.00, 0.00, -0.00, -1.00, 522.4, 144.3)">o</text><text xml:space="preserve" font-family="LucidaSansUnicode,Lucida Sans Unicode" font-size="12.0" fill="#FEFFFE" transform="matrix(1.00, 0.00, -0.00, -1.00, 529.7, 144.3)"> </text><text xml:space="preserve" font-family="LucidaSansUnicode,Lucida Sans Unicode" font-size="12.0" fill="#FEFFFE" transform="matrix(1.00, 0.00, -0.00, -1.00, 533.5, 144.3)">p</text><text xml:space="preserve" font-family="LucidaSansUnicode,Lucida Sans Unicode" font-size="12.0" fill="#FEFFFE" transform="matrix(1.00, 0.00, -0.00, -1.00, 541.1, 144.3)">รก</text><text xml:space="preserve" font-family="LucidaSansUnicode,Lucida Sans Unicode" font-size="12.0" fill="#FEFFFE" transform="matrix(1.00, 0.00, -0.00, -1.00, 547.7, 144.3)">g</text><text xml:space="preserve" font-family="LucidaSansUnicode,Lucida Sans Unicode" font-size="12.0" fill="#FEFFFE" transform="matrix(1.00, 0.00, -0.00, -1.00, 555.2, 144.3)">i</text><text xml:space="preserve" font-family="LucidaSansUnicode,Lucida Sans Unicode" font-size="12.0" fill="#FEFFFE" transform="matrix(1.00, 0.00, -0.00, -1.00, 558.7, 144.3)">n</text><text xml:space="preserve" font-family="LucidaSansUnicode,Lucida Sans Unicode" font-size="12.0" fill="#FEFFFE" transform="matrix(1.00, 0.00, -0.00, -1.00, 566.1, 144.3)">a</text><text xml:space="preserve" font-family="LucidaSansUnicode,Lucida Sans Unicode" font-size="12.0" fill="#FEFFFE" transform="matrix(1.00, 0.00, -0.00, -1.00, 572.7, 144.3)"> </text><text xml:space="preserve" font-family="LucidaSansUnicode,Lucida Sans Unicode" font-size="12.0" fill="#FEFFFE" transform="matrix(1.00, 0.00, -0.00, -1.00, 576.5, 144.3)">n</text><text xml:space="preserve" font-family="LucidaSansUnicode,Lucida Sans Unicode" font-size="12.0" fill="#FEFFFE" transform="matrix(1.00, 0.00, -0.00, -1.00, 584.0, 144.3)">a</text><text xml:space="preserve" font-family="LucidaSansUnicode,Lucida Sans Unicode" font-size="12.0" fill="#FEFFFE" transform="matrix(1.00, 0.00, -0.00, -1.00, 590.6, 144.3)"> </text><text xml:space="preserve" font-family="LucidaSansUnicode,Lucida Sans Unicode" font-size="12.0" fill="#FEFFFE" transform="matrix(1.00, 0.00, -0.00, -1.00, 594.4, 144.3)">s</text><text xml:space="preserve" font-family="LucidaSansUnicode,Lucida Sans Unicode" font-size="12.0" fill="#FEFFFE" transform="matrix(1.00, 0.00, -0.00, -1.00, 600.5, 144.3)">i</text><text xml:space="preserve" font-family="LucidaSansUnicode,Lucida Sans Unicode" font-size="12.0" fill="#FEFFFE" transform="matrix(1.00, 0.00, -0.00, -1.00, 604.0, 144.3)">m</text><text xml:space="preserve" font-family="LucidaSansUnicode,Lucida Sans Unicode" font-size="12.0" fill="#FEFFFE" transform="matrix(1.00, 0.00, -0.00, -1.00, 615.2, 144.3)">u</text><text xml:space="preserve" font-family="LucidaSansUnicode,Lucida Sans Unicode" font-size="12.0" fill="#FEFFFE" transform="matrix(1.00, 0.00, -0.00, -1.00, 622.6, 144.3)">l</text><text xml:space="preserve" font-family="LucidaSansUnicode,Lucida Sans Unicode" font-size="12.0" fill="#FEFFFE" transform="matrix(1.00, 0.00, -0.00, -1.00, 626.1, 144.3)">a</text><text xml:space="preserve" font-family="LucidaSansUnicode,Lucida Sans Unicode" font-size="12.0" fill="#FEFFFE" transform="matrix(1.00, 0.00, -0.00, -1.00, 632.7, 144.3)">รง</text><text xml:space="preserve" font-family="LucidaSansUnicode,Lucida Sans Unicode" font-size="12.0" fill="#FEFFFE" transform="matrix(1.00, 0.00, -0.00, -1.00, 638.9, 144.3)">รฃ</text><text xml:space="preserve" font-family="LucidaSansUnicode,Lucida Sans Unicode" font-size="12.0" fill="#FEFFFE" transform="matrix(1.00, 0.00, -0.00, -1.00, 645.5, 144.3)">o</text><text xml:space="preserve" font-family="LucidaSansUnicode,Lucida Sans Unicode" font-size="12.0" fill="#FEFFFE" transform="matrix(1.00, 0.00, -0.00, -1.00, 652.9, 144.3)"> </text><text xml:space="preserve" font-family="LucidaSansUnicode,Lucida Sans Unicode" font-size="12.0" fill="#FEFFFE" transform="matrix(1.00, 0.00, -0.00, -1.00, 656.7, 144.3)">d</text><text xml:space="preserve" font-family="LucidaSansUnicode,Lucida Sans Unicode" font-size="12.0" fill="#FEFFFE" transform="matrix(1.00, 0.00, -0.00, -1.00, 664.3, 144.3)">e</text><text xml:space="preserve" font-family="LucidaSansUnicode,Lucida Sans Unicode" font-size="12.0" fill="#FEFFFE" transform="matrix(1.00, 0.00, -0.00, -1.00, 670.9, 144.3)"> </text><text xml:space="preserve" font-family="LucidaSansUnicode,Lucida Sans Unicode" font-size="12.0" fill="#FEFFFE" transform="matrix(1.00, 0.00, -0.00, -1.00, 674.7, 144.3)">d</text><text xml:space="preserve" font-family="LucidaSansUnicode,Lucida Sans Unicode" font-size="12.0" fill="#FEFFFE" transform="matrix(1.00, 0.00, -0.00, -1.00, 682.3, 144.3)">e</text><text xml:space="preserve" font-family="LucidaSansUnicode,Lucida Sans Unicode" font-size="12.0" fill="#FEFFFE" transform="matrix(1.00, 0.00, -0.00, -1.00, 689.0, 144.3)">s</text><text xml:space="preserve" font-family="LucidaSansUnicode,Lucida Sans Unicode" font-size="12.0" fill="#FEFFFE" transform="matrix(1.00, 0.00, -0.00, -1.00, 695.1, 144.3)">k</text><text xml:space="preserve" font-family="LucidaSansUnicode,Lucida Sans Unicode" font-size="12.0" fill="#FEFFFE" transform="matrix(1.00, 0.00, -0.00, -1.00, 702.1, 144.3)">t</text><text xml:space="preserve" font-family="LucidaSansUnicode,Lucida Sans Unicode" font-size="12.0" fill="#FEFFFE" transform="matrix(1.00, 0.00, -0.00, -1.00, 706.6, 144.3)">o</text><text xml:space="preserve" font-family="LucidaSansUnicode,Lucida Sans Unicode" font-size="12.0" fill="#FEFFFE" transform="matrix(1.00, 0.00, -0.00, -1.00, 714.0, 144.3)">p</text><g><clipPath id="clip0x7fb8786e1b60"><path d="M 100.0 93.6 L 924.0 93.6 L 924.0 539.4 L 100.0 539.4 Z M 100.0 93.6 "></path></clipPath><g clip-path="url(#clip0x7fb8786e1b60)"><path d="M 100.0 539.4 L 924.0 539.4 L 924.0 93.6 L 100.0 93.6 Z M 100.0 539.4 " fill="#FEFFFF" fill-opacity="0.00"></path></g></g><g><clipPath id="clip0x7fb8786f8800"><path d="M 100.7 538.5 L 922.9 538.5 L 922.9 95.1 L 100.7 95.1 Z M 100.7 538.5 "></path></clipPath><g clip-path="url(#clip0x7fb8786f8800)"><g><clipPath id="clip0x7fb8786f8f10"><path d="M 100.7 95.1 L 922.9 95.1 L 922.9 538.5 L 100.7 538.5 Z M 100.7 95.1 "></path></clipPath><g clip-path="url(#clip0x7fb8786f8f10)"><image xlink:href="../../2C153F69-1D5F-48F4-BCED-52BB73DAA280/assets/3005492947A2948208FD53BBFFCD35EF.png" width="1321.00" height="707.00" transform="matrix(0.62, 0.00, -0.00, -0.63, 100.7, 538.5)"></image></g></g></g></g></g></svg>